<?xml version="1.0" encoding="UTF-8"?>
<!DOCTYPE svg PUBLIC "-//W3C//DTD SVG 1.1//EN" "http://www.w3.org/Graphics/SVG/1.1/DTD/svg11.dtd">
<!-- Creator: CorelDRAW SE 2023 -->
<svg xmlns="http://www.w3.org/2000/svg" xml:space="preserve" width="51.0377mm" height="241.739mm" version="1.1" style="shape-rendering:geometricPrecision; text-rendering:geometricPrecision; image-rendering:optimizeQuality; fill-rule:evenodd; clip-rule:evenodd"
viewBox="0 0 107.38 508.59"
 xmlns:xlink="http://www.w3.org/1999/xlink"
 xmlns:xodm="http://www.corel.com/coreldraw/odm/2003">
 <defs>
  <style type="text/css">
   <![CDATA[
    .fil0 {fill:black}
    .fil1 {fill:#0B0908}
    .fil2 {fill:#614A29}
    .fil3 {fill:#76684A}
    .fil4 {fill:black;fill-rule:nonzero}
   ]]>
  </style>
 </defs>
 <g id="Layer_x0020_1">
  <metadata id="CorelCorpID_0Corel-Layer"/>
  <g id="_2633877649488">
   <path class="fil0" d="M24.04 473.99l-2.55 8.48c-2.04,1.69 -3.21,0.24 -6.05,-1.21 -2.6,-1.33 -4.25,-2.14 -7.01,-3.08l-3.57 8.96 12.11 4.78 -0.66 2.02 -0.36 1.44 -0.8 0.93 -1.96 3.48 0.02 2.13c2.93,2.73 2.62,2.42 3.95,5.72l3.8 0.94 5.22 -12.36 2.79 1.69 2.61 0.63 2.09 1.14 1.81 1.44 3.33 -0.06 2.77 -6.83c-0.74,-2.37 -0.28,-1.6 -2.7,-2.85 -0.38,-0.2 -2.32,-0.76 -3.13,-1.1l-1.14 -0.44 -1.91 -0.83 -3.38 -1.2 5.58 -13.06 -9.15 -3.28 -1.69 2.52z"/>
   <path class="fil1" d="M9.71 346.47c0.92,-4.24 -4.35,1.77 1.9,-4.83 4.42,-4.66 3.86,-1.35 4.31,-1.39 -0.79,3.2 3.76,-1.44 -1.96,4.61 -4.5,4.75 -2.95,1.4 -4.25,1.61z"/>
   <path class="fil1" d="M20.36 386.79c6.63,-2.25 5.49,-1.43 10.05,2.31 -4.12,1.79 -1.91,2.06 -5.72,1.19 -1.77,-0.4 -2.96,-2.17 -4.34,-3.5z"/>
   <path class="fil1" d="M44.35 329.82c6.14,-2.08 5.33,-1.45 7.03,-7.31 -6.53,0.07 -4.42,-0.85 -7.03,7.31z"/>
   <path class="fil1" d="M33.33 334.4c1.78,1.61 -3.44,2.69 4.08,1.25 5.93,-1.14 3.67,-2.41 4.29,-2.96 -0.66,-0.35 0.54,-5.83 -8.38,1.71z"/>
   <path class="fil1" d="M44.9 296.3c-0.06,0.04 -5.71,-0.04 1.71,8.33 0.97,-1.29 2.5,2.75 1.27,-3.91 -1.18,-6.4 -2.24,-3.58 -2.98,-4.42z"/>
   <path class="fil1" d="M97.46 106.11c0.02,-0.03 6.71,-0.21 1.71,-8.38 -0.63,0.63 -1.38,-1.81 -2.39,3.4 -1.75,9.06 -0.42,1.49 0.67,4.98z"/>
   <path class="fil1" d="M71.19 247.09c-3.89,-2.07 5.56,-3.55 -4.89,-0.99 -6.69,1.63 -0.67,0.32 -3.44,2.7 1.87,1.33 -1.57,5.76 8.34,-1.71z"/>
   <path class="fil1" d="M46.95 401.85l-2.93 -3.18 2.6 -1.73 2.3 1.66c6.05,8 2.59,3.12 1.86,6.41l-3.83 -3.16z"/>
   <path class="fil1" d="M88.1 165.06c-0.35,0.55 -2.81,-0.58 -0.44,3.14 2.16,3.38 2.8,2.62 5.88,3.97 -1.12,-4.59 -2.21,-8.18 -5.44,-7.12z"/>
   <path class="fil1" d="M86.54 201.35c1.87,-7.65 0.32,-1.97 -0.56,-4.6 -3.81,3.66 -1,-5.36 -3.16,4.42 -1.14,5.16 1.24,3.65 1.45,3.93 1.71,-1.46 1.27,0.33 2.27,-3.75z"/>
   <path class="fil1" d="M32.44 100.6c3.97,1.67 4.68,0.59 8.23,-1.71 -1.68,-1.13 3.82,-3.65 -4.7,-1.46 -6.35,1.63 -2.44,0.94 -3.53,3.18z"/>
   <path class="fil1" d="M79.68 235.08c-2.62,1.16 -3.41,-0.63 -5.19,4.07 -2.31,6.11 0.94,3.8 1.93,4.55l3.25 -8.62z"/>
   <path class="fil1" d="M7.16 359.6c-1.67,-3.9 -4.32,-3.01 0.77,-9.32 3.24,5.38 2.47,-0.11 1.31,5.82 -0.43,2.19 -0.62,1.64 -2.08,3.5z"/>
   <path class="fil1" d="M19.02 337.92c1.35,-1.23 1.86,-1.97 3.99,-2.17 7.53,-0.72 1.36,-1.56 5.91,2.08 -6.38,2.09 -5.22,2.35 -9.91,0.09z"/>
   <path class="fil1" d="M95.33 184.34c2.46,-2.47 6.04,4.41 1.51,-8.96 -3.87,3.76 -1.37,-2.23 -2.23,3.38 -0,0.03 0.65,5.12 0.72,5.57z"/>
   <path class="fil1" d="M58.77 410.35c1.9,2.93 0.73,2.5 0.88,4.27 -3.79,-1.72 1.17,5.39 -4.46,-3.5 -3.44,-5.44 -0.51,-1.18 -0.4,-3.75 1.5,0.61 0.04,-3.11 3.97,2.98z"/>
   <path class="fil1" d="M5.91 369.16c-1.14,-7.86 -1.24,-0.06 2.22,-6.13 1.03,3 1.21,1.96 1.66,5.49 0.55,4.34 0.17,1.18 -0.85,4.22l-3.03 -3.58z"/>
   <path class="fil1" d="M36.86 46.87c6.38,-1.56 5.5,-0.98 7.66,-7.7 -5.18,2.35 -5.24,2.27 -7.66,7.7z"/>
   <path class="fil1" d="M49.35 317.52c1.02,-1.03 6.64,1.89 0.68,-8.77 -2.27,2.14 -1.37,0.23 -1.54,4.7 -0.02,0.48 0.79,3.69 0.86,4.06z"/>
   <path class="fil1" d="M98.57 94.07c-2.29,-5.79 -1.46,-5.86 -7.5,-7.17 1.03,4.72 -1.82,0.79 1.83,4.08 1.94,1.75 2.58,1.61 5.67,3.09z"/>
   <path class="fil1" d="M79.4 151.97c2.99,-5.53 2.53,-4.66 -1.36,-10.43 -1.01,5.79 -1.46,5.84 1.36,10.43z"/>
   <path class="fil1" d="M39.29 272.43c1.04,-2.09 1.08,-1.96 0,-4.07 -0.97,1.2 -1.07,-2.15 -0.96,2.34 0.05,2.04 0.29,0.86 0.96,1.73z"/>
   <path class="fil1" d="M37.33 22.74l5.36 4.12c-0.12,-4.62 0.4,-3.62 -1.88,-6.5 -2.74,0 -2.02,0.59 -1.51,-2.31 -2.57,1.34 -1.78,-2.02 -1.96,4.7z"/>
   <path class="fil1" d="M88.61 194.37c0.39,-0.22 5.32,-2.62 5.36,-2.65 3.09,-2.59 1.29,-0.29 2.13,-4.36 -8.32,2.76 -6.4,3.11 -7.49,7.01z"/>
   <path class="fil1" d="M91.85 112.74c3.04,0.05 0.64,1.34 2.98,-1.44 2.96,-3.51 -1.51,-4.65 -2.98,1.44z"/>
   <path class="fil1" d="M39.56 264.75c4.62,-1.1 4.43,0.45 7.04,-7.44 -4.07,1.12 -1.75,-0.54 -4.47,2.42 -0.01,0.01 -2.29,4.46 -2.57,5.02z"/>
   <path class="fil1" d="M77.92 86.46c3.73,1.48 3.89,2.52 8.56,0 -1.24,-1.18 2.7,-1.82 -3.06,-2.01 -11.34,-0.36 -1.86,-0.43 -5.5,2.01z"/>
   <path class="fil1" d="M82.56 217.76c1.97,-4.18 2.5,-4.29 0,-8.56 -0.63,0.93 -2.15,-2.13 -2.04,5.17 0.08,5.17 -0.17,0.97 2.04,3.39z"/>
   <path class="fil1" d="M84.69 158.74c-3.15,-1.16 -1.83,-3.45 -6.45,-4.96 -0.07,4.63 1.74,9.88 6.45,4.96z"/>
   <path class="fil1" d="M78.63 138.87c0.45,-0.53 1.74,1.84 1.93,-3.12 0.42,-10.69 0.71,-1.65 -1.93,-5.29 -1.9,4.62 -2.74,4.57 0,8.41z"/>
   <path class="fil1" d="M67.27 84.72c0.63,1.05 -2.83,5.5 8.28,1.74 -1.04,-0.86 -1.14,-3.42 -8.28,-1.74z"/>
   <path class="fil1" d="M27.66 55.85c2.47,-1.16 3.92,-1.29 5.58,-2.97 2.34,-2.37 1.13,-0.75 1.73,-4.29 -5.32,1.71 -5.16,1.91 -7.31,7.25z"/>
   <path class="fil1" d="M42.53 395.05c-5.85,2.01 0.23,3.72 -6.55,-0.19 -2.72,-1.57 -1.8,-1.8 -1.71,-4.43l8.25 4.62z"/>
   <path class="fil1" d="M43.76 35.77c2.79,-2.68 1.96,3.48 2.21,-3.25 0.24,-6.65 -1.67,-4.9 -2.03,-5.5 -0.93,1.77 -2.61,0.96 -0.18,8.74z"/>
   <path class="fil1" d="M81 129.21l3.75 -4.27c-2.9,-0.47 -1.6,-1.37 -3.55,0.89 -1.65,1.92 -1,2.05 -0.21,3.37z"/>
   <path class="fil1" d="M50.28 255.72c6.76,-1.56 6.09,-0.66 8.24,-5.46 -6.38,1.36 -6.3,0.58 -8.24,5.46z"/>
   <path class="fil1" d="M11.69 376.96c3.48,2.19 4.93,2.56 4.86,7.14 -5.23,-1.34 -5.7,-2.5 -4.86,-7.14z"/>
   <path class="fil1" d="M80.85 231.01c2.67,-4.66 1.95,-4.98 0,-8.56 -0.51,0.91 -1.92,-1.33 -1.81,5.5 0.11,6.58 -0.28,0.8 1.81,3.06z"/>
   <path class="fil1" d="M25.11 67.22c0.2,-0.39 1.49,0.23 1.64,-3.8 0.32,-8.47 0.71,-1.73 -1.64,-4.45 -2.82,4.73 -2.86,4.61 0,8.24z"/>
   <path class="fil1" d="M41.95 294.46c3.47,-3.73 2.66,-3.37 0,-8.24 -1.95,2.47 -1.81,-0.32 -1.57,4.89 0.11,2.43 1.33,2.91 1.57,3.35z"/>
   <path class="fil1" d="M20.73 77.99l-0.8 2.72c5.81,0.58 5.23,-6.38 2.8,-8.18l-2 5.46z"/>
   <path class="fil1" d="M48.67 97.08l4.52 -1.63c1.45,-1.57 2.53,-2.85 1.33,-4.05 -2.51,-2.51 -5.71,4.48 -5.86,5.69z"/>
   <polygon class="fil1" points="20.75,90.37 21.85,94.35 24.63,93.21 22.69,89.02 19.37,87.66 "/>
   <polygon class="fil2" points="77.75,94.82 81.33,96.45 77.75,94.82 77.17,92.56 81.36,93.02 77.17,92.56 "/>
   <polygon class="fil3" points="44.02,398.67 46.62,396.94 48.92,398.6 46.62,396.94 44.02,398.67 46.95,401.85 "/>
   <path class="fil1" d="M57.4 91.87l7.38 -4.03c-2.64,-1.05 1.14,-4.08 -4.29,-0.66 -9.29,5.87 -1.79,0.58 -3.1,4.69z"/>
   <path class="fil1" d="M49.51 443.61c1.87,-7.65 0.32,-1.97 -0.56,-4.6 -3.81,3.66 -1,-5.36 -3.16,4.42 -1.14,5.16 1.24,3.65 1.45,3.93 1.71,-1.46 1.27,0.33 2.27,-3.75z"/>
   <path class="fil1" d="M42.64 477.34c-2.62,1.16 -3.41,-0.63 -5.19,4.07 -2.31,6.11 0.94,3.8 1.93,4.55l3.25 -8.62z"/>
   <path class="fil1" d="M58.3 426.6c2.46,-2.47 6.04,4.41 1.51,-8.96 -3.87,3.76 -1.37,-2.23 -2.23,3.38 -0,0.03 0.65,5.12 0.72,5.57z"/>
   <path class="fil1" d="M51.58 436.63c0.39,-0.22 5.32,-2.62 5.36,-2.65 3.09,-2.59 1.29,-0.29 2.13,-4.36 -8.32,2.76 -6.4,3.11 -7.49,7.01z"/>
   <path class="fil1" d="M45.53 460.02c1.97,-4.18 2.5,-4.29 0,-8.56 -0.63,0.93 -2.15,-2.13 -2.04,5.17 0.08,5.17 -0.17,0.97 2.04,3.39z"/>
   <path class="fil1" d="M43.82 473.27c2.67,-4.66 1.95,-4.98 0,-8.56 -0.51,0.91 -1.92,-1.33 -1.81,5.5 0.11,6.58 -0.28,0.8 1.81,3.06z"/>
   <path class="fil1" d="M35.39 11.46l4.06 5.4c1.13,-4.48 1.35,-3.38 -0.07,-6.77 -1.77,-1.48 -7.06,-6.03 -3.98,1.37z"/>
   <path class="fil0" d="M31.75 1.41l-1.42 4.74c-1.14,0.94 -1.8,0.14 -3.38,-0.67 -1.45,-0.74 -2.38,-1.2 -3.92,-1.72l-2 5.01 6.77 2.67 -0.37 1.13 -0.2 0.81 -0.45 0.52 -1.1 1.95 0.01 1.19c1.64,1.53 1.47,1.35 2.21,3.2l2.13 0.52 2.92 -6.91 1.56 0.94 1.46 0.35 1.17 0.64 1.01 0.81 1.86 -0.04 1.55 -3.82c-0.42,-1.32 -0.16,-0.89 -1.51,-1.59 -0.21,-0.11 -1.3,-0.42 -1.75,-0.61l-0.64 -0.25 -1.07 -0.46 -1.89 -0.67 3.12 -7.3 -5.12 -1.83 -0.94 1.41z"/>
   <path class="fil4" d="M46.99 10.79c0.8,-0.96 1.82,-2.19 3.45,-4.38 -0.08,-0.37 -0.19,-0.8 -0.31,-1.15l-3.44 -0.01c-0.31,0 -0.97,-0.02 -1.07,-0.02 -0.13,0.69 -0.26,1.39 -0.38,2.09 0.33,0.07 0.72,0.14 1.06,0.21l0.35 -1c0.04,-0.11 0.1,-0.2 0.21,-0.24 0.13,-0.04 0.26,-0.05 0.98,-0.05 0.2,0 0.4,0 0.61,0l0.02 0.04c-1.05,1.43 -1.99,2.73 -3.48,4.72 0.09,0.25 0.2,0.56 0.32,0.81 0.21,0 1.02,0 1.58,0 1.82,0 2.98,0.01 3.19,0.01 0.17,-0.69 0.33,-1.4 0.49,-2.09 -0.32,-0.07 -0.72,-0.15 -1.08,-0.21l-0.31 0.89c-0.05,0.14 -0.14,0.25 -0.31,0.3 -0.33,0.08 -1.07,0.12 -1.85,0.12l-0.02 -0.04z"/>
   <path id="_1" class="fil4" d="M53.92 11.47c0.15,0.19 0.28,0.35 0.38,0.44 0.81,0 1.53,-0.14 1.69,-0.2 0.01,-0.26 0,-0.57 0,-0.83l-0.54 0.02c-0.05,0.01 -0.05,-0.01 -0.05,-0.07 0.01,-0.43 0.02,-1.4 0.02,-2.06 0,-0.86 -0.77,-1.52 -1.55,-1.52 -0.97,0 -1.72,0.4 -2.45,1 0.16,0.24 0.34,0.51 0.53,0.72 0.4,-0.27 0.94,-0.57 1.27,-0.57 0.46,0 0.65,0.3 0.62,0.8 -0.1,0 -0.27,0 -0.49,0 -1.61,0 -2.27,0.97 -2.27,1.53 0,0.65 0.78,1.18 1.3,1.18 0.38,0 0.87,-0.14 1.48,-0.44l0.05 0zm-1.22 -0.91c0,-0.32 0.28,-0.61 0.95,-0.61 0.07,0 0.15,0 0.21,0.01 0,0.26 0,0.45 0,0.7 0,0.01 0,0.04 -0.02,0.06 -0.15,0.09 -0.41,0.22 -0.68,0.22 -0.2,0 -0.47,-0.15 -0.47,-0.38z"/>
   <path id="_2" class="fil4" d="M56.45 9.88c0,1.26 0.96,2.03 2.19,2.03 0.41,0 1.21,-0.14 1.87,-0.5 -0.04,-0.24 -0.12,-0.55 -0.19,-0.81 -0.3,0.12 -0.77,0.27 -1.16,0.27 -0.21,0 -0.52,-0.04 -0.69,-0.24 -0.18,-0.21 -0.31,-0.49 -0.31,-0.97 0,-0.46 0.05,-0.76 0.21,-1.03 0.14,-0.24 0.33,-0.31 0.56,-0.31 0.4,0 0.92,0.25 1.05,0.3 0.2,-0.11 0.52,-0.82 0.52,-1.12 -0.24,-0.15 -0.76,-0.25 -1.12,-0.25 -1.79,0 -2.92,1.2 -2.92,2.63zm2.49 -4.04c-0.36,-0.33 -0.72,-0.67 -1.04,-0.97 -0.17,0.12 -0.35,0.27 -0.52,0.43 0.4,0.45 0.85,0.97 1.22,1.42 0.2,0.01 0.46,0.01 0.65,0.01 0.36,-0.41 0.88,-1.03 1.23,-1.43 -0.13,-0.15 -0.31,-0.32 -0.48,-0.44 -0.32,0.29 -0.7,0.65 -1.07,0.98z"/>
   <path id="_3" class="fil4" d="M63.7 11.47c0.15,0.19 0.28,0.35 0.38,0.44 0.81,0 1.53,-0.14 1.69,-0.2 0.01,-0.26 0,-0.57 0,-0.83l-0.54 0.02c-0.05,0.01 -0.05,-0.01 -0.05,-0.07 0.01,-0.43 0.02,-1.4 0.02,-2.06 0,-0.86 -0.77,-1.52 -1.55,-1.52 -0.97,0 -1.72,0.4 -2.45,1 0.16,0.24 0.34,0.51 0.53,0.72 0.4,-0.27 0.94,-0.57 1.27,-0.57 0.46,0 0.65,0.3 0.62,0.8 -0.1,0 -0.27,0 -0.49,0 -1.61,0 -2.27,0.97 -2.27,1.53 0,0.65 0.78,1.18 1.3,1.18 0.38,0 0.87,-0.14 1.48,-0.44l0.05 0zm-1.22 -0.91c0,-0.32 0.28,-0.61 0.95,-0.61 0.07,0 0.15,0 0.21,0.01 0,0.26 0,0.45 0,0.7 0,0.01 0,0.04 -0.02,0.06 -0.15,0.09 -0.41,0.22 -0.68,0.22 -0.2,0 -0.47,-0.15 -0.47,-0.38zm1.84 -5.76c-0.52,0.5 -1.08,1.05 -1.59,1.53 0.16,0.19 0.31,0.36 0.45,0.53 0.57,-0.39 1.19,-0.85 1.81,-1.29 -0.2,-0.25 -0.43,-0.53 -0.68,-0.76z"/>
   <path id="_4" class="fil4" d="M67.88 11.91c0.75,0 1.49,-0.09 2.19,-0.36 -0.03,-0.26 -0.07,-0.58 -0.12,-0.85 -0.31,0.08 -0.7,0.15 -1.1,0.15 -0.22,0 -0.46,-0.17 -0.46,-0.46 0,-0.45 0,-0.82 0.01,-1.23 0,-0.56 0,-0.76 0,-0.84 0.46,0 1.09,0.01 1.52,0.01 0.03,-0.3 0.04,-0.66 0.04,-0.95 -0.48,0 -1.04,0.01 -1.56,0.01 0.01,-0.27 0.02,-1.19 0.03,-1.42 0,-0.03 -0.01,-0.04 -0.03,-0.04 -0.03,0 -0.99,0.29 -1.51,0.55 -0.02,0.24 -0.05,0.57 -0.07,0.84 0,0.05 -0.04,0.08 -0.07,0.08 -0.2,0.01 -0.46,0.04 -0.66,0.05 -0.02,0.28 -0.03,0.58 -0.03,0.86 0.24,0 0.54,0 0.71,0 0,0.09 -0.01,1.11 -0.01,1.32 0,0.12 -0.01,0.61 -0.01,1.17 0,0.28 0.03,0.52 0.35,0.8 0.25,0.23 0.52,0.3 0.78,0.3z"/>
   <path id="_5" class="fil4" d="M70.41 9.82c0,1.44 1.03,2.09 2.37,2.09 0.49,0 1.37,-0.2 1.96,-0.48 -0.04,-0.25 -0.11,-0.58 -0.19,-0.84 -0.32,0.12 -0.98,0.28 -1.43,0.28 -0.25,0 -0.52,-0.02 -0.75,-0.24 -0.13,-0.12 -0.25,-0.32 -0.27,-0.66 0.9,0 1.93,0 2.2,-0.03 0.08,-0.01 0.54,-0.44 0.55,-0.59 0,-0.66 -0.19,-1.19 -0.52,-1.58 -0.27,-0.3 -0.75,-0.54 -1.37,-0.54 -1.52,0 -2.55,1.13 -2.55,2.57zm2.35 -1.72c0.22,0 0.37,0.12 0.45,0.3 0.08,0.15 0.12,0.42 0.12,0.64 0,0.07 -0.03,0.11 -0.09,0.11 -0.29,0.01 -0.79,0.02 -1.14,0.02 -0.01,-0.4 0.06,-0.6 0.18,-0.8 0.14,-0.22 0.31,-0.27 0.48,-0.27z"/>
   <path id="_6" class="fil4" d="M75.91 5.89c0,1.51 -0.01,3.46 -0.01,5.03 0,0.01 -0.01,0.04 -0.03,0.04l-0.5 0.03c-0.01,0.26 -0.02,0.57 -0.02,0.83 0.41,0 0.89,-0.01 1.3,-0.01 0.41,0 0.9,0 1.23,0 0.01,-0.26 0.01,-0.56 0.01,-0.82l-0.36 -0.03c0,-0.33 0.01,-0.82 0.01,-1.14 0.14,-0.01 0.26,-0.01 0.39,-0.01 0.16,0 0.34,0.38 0.5,0.84 0.17,0.52 0.3,0.94 0.43,1.19 0.14,-0.01 1.64,-0.02 2.01,-0.02 0.02,-0.26 0.02,-0.57 0.02,-0.84l-0.52 -0.02c-0.05,0 -0.11,-0.03 -0.15,-0.09 -0.07,-0.13 -0.18,-0.39 -0.31,-0.71 -0.25,-0.6 -0.52,-0.81 -0.73,-0.96l0 -0.06c0.28,-0.22 0.62,-0.5 1.11,-0.91l0.37 -0.03c0.01,-0.27 0.01,-0.57 0.01,-0.84 -0.27,0 -0.6,0 -0.87,0.01 -0.42,0 -0.97,0.01 -1.42,0.01 -0.01,0.26 -0.01,0.57 -0.01,0.84l0.37 0.02c0.02,0 0.04,0.01 0.02,0.04 -0.26,0.31 -0.53,0.55 -0.71,0.71 -0.17,0.02 -0.35,0.02 -0.53,0.03 0.01,-1.57 0.02,-3.06 0.02,-4.23 0,-0.03 -0.01,-0.04 -0.02,-0.04 -0.1,0 -1.72,0.21 -2.28,0.28 0,0.26 -0.01,0.56 -0.01,0.84l0.65 0.02z"/>
   <path id="_7" class="fil4" d="M85.53 7.83c-0.04,-0.19 -0.07,-0.37 -0.11,-0.57 0,-0.01 0,-0.02 -0.02,-0.02 -0.05,0 -1.58,0.26 -2.05,0.32 -0.01,0.26 -0.02,0.56 -0.02,0.83l0.64 0.01 -0.01 4.89c0,0.03 -0.01,0.05 -0.04,0.05l-0.49 0.04c-0.01,0.27 -0.01,0.57 -0.01,0.83 0.4,-0.01 0.93,-0.01 1.33,-0.01 0.54,-0.01 1.14,-0.01 1.63,-0.01 0.01,-0.26 0.01,-0.56 0.01,-0.83l-0.82 -0.03c0,-0.52 0,-1.04 -0.01,-1.55l0.07 -0.02c0.22,0.09 0.51,0.14 0.89,0.14 0.4,0 0.88,-0.17 1.08,-0.32 0.39,-0.3 0.64,-0.68 0.77,-0.98 0.19,-0.42 0.31,-0.9 0.31,-1.35 0.01,-1.05 -0.7,-2 -1.54,-2 -0.42,0 -0.54,0.04 -1.56,0.59l-0.06 -0.01zm1.43 1.8c0,0.54 -0.09,0.9 -0.23,1.11 -0.13,0.19 -0.33,0.26 -0.52,0.26 -0.21,0 -0.62,-0.15 -0.62,-0.35 0,-0.57 0.01,-1.38 0.02,-1.94 0.29,-0.18 0.59,-0.28 0.79,-0.28 0.19,0 0.31,0.14 0.39,0.26 0.1,0.15 0.16,0.48 0.16,0.94z"/>
   <path id="_8" class="fil4" d="M89.73 5.9c0,1.5 0,3.47 0,5.01 0,0.03 -0.01,0.05 -0.03,0.05l-0.55 0.03c0,0.26 -0.01,0.57 -0.01,0.83 0.42,0 0.96,-0.01 1.39,-0.01 0.48,0 1,0 1.41,0 0,-0.26 0.01,-0.56 0.01,-0.83l-0.59 -0.02c0.01,-1.88 0.03,-4.5 0.04,-6.18 0,-0.03 -0.01,-0.04 -0.03,-0.04 -0.1,0 -1.75,0.21 -2.31,0.27 -0.01,0.26 -0.02,0.57 -0.02,0.84l0.69 0.04z"/>
   <path id="_9" class="fil4" d="M92.41 9.82c0,1.44 1.03,2.09 2.37,2.09 0.49,0 1.37,-0.2 1.96,-0.48 -0.04,-0.25 -0.11,-0.58 -0.19,-0.84 -0.32,0.12 -0.98,0.28 -1.43,0.28 -0.25,0 -0.52,-0.02 -0.75,-0.24 -0.13,-0.12 -0.25,-0.32 -0.27,-0.66 0.9,0 1.93,0 2.2,-0.03 0.08,-0.01 0.54,-0.44 0.55,-0.59 0,-0.66 -0.19,-1.19 -0.52,-1.58 -0.27,-0.3 -0.75,-0.54 -1.37,-0.54 -1.52,0 -2.55,1.13 -2.55,2.57zm2.35 -1.72c0.22,0 0.37,0.12 0.45,0.3 0.08,0.15 0.12,0.42 0.12,0.64 0,0.07 -0.03,0.11 -0.09,0.11 -0.29,0.01 -0.79,0.02 -1.14,0.02 -0.01,-0.4 0.06,-0.6 0.18,-0.8 0.14,-0.22 0.31,-0.27 0.48,-0.27z"/>
   <path id="_10" class="fil4" d="M98.32 10.21c-0.3,0.04 -0.61,0.1 -0.89,0.16 0.05,0.46 0.1,0.92 0.16,1.39 0.33,0.1 0.86,0.16 1.33,0.16 0.64,0 1.18,-0.1 1.51,-0.25 0.55,-0.27 0.89,-0.75 0.89,-1.31 0,-0.81 -0.5,-1.1 -1.22,-1.3 -0.78,-0.21 -0.95,-0.26 -0.95,-0.49 0,-0.19 0.09,-0.29 0.18,-0.35 0.09,-0.06 0.26,-0.08 0.38,-0.08 0.12,0 0.28,0.03 0.39,0.11 0.04,0.02 0.06,0.07 0.07,0.11l0.15 0.54c0.31,-0.04 0.64,-0.09 0.91,-0.14 -0.04,-0.45 -0.09,-0.91 -0.14,-1.35 -0.17,-0.06 -0.66,-0.13 -1.21,-0.13 -0.66,0 -1.12,0.13 -1.45,0.29 -0.42,0.2 -0.87,0.66 -0.87,1.26 0,0.64 0.44,1.08 1.35,1.34 0.69,0.18 0.81,0.25 0.81,0.51 0,0.17 -0.1,0.27 -0.22,0.33 -0.12,0.05 -0.25,0.05 -0.39,0.05 -0.18,0 -0.38,-0.05 -0.56,-0.15 -0.06,-0.04 -0.07,-0.08 -0.08,-0.11l-0.16 -0.58z"/>
   <path id="_11" class="fil4" d="M105.24 11.41c0.18,0.24 0.32,0.39 0.48,0.51 0.66,0 1.55,-0.14 1.65,-0.19 0.01,-0.27 0.01,-0.58 0.01,-0.84l-0.57 0.02c-0.03,0 -0.04,-0.02 -0.04,-0.06 0,-1.16 0.02,-2.38 0.03,-3.45 0,-0.01 -0.01,-0.04 -0.02,-0.04 -0.15,0 -1.74,0.03 -2.12,0.04 0,0.26 -0.01,0.58 -0.01,0.86l0.5 0.02c0,0.62 0.01,1.62 0,2.31 -0.19,0.14 -0.44,0.21 -0.61,0.21 -0.14,0 -0.28,-0.01 -0.4,-0.2 -0.13,-0.22 -0.12,-0.58 -0.12,-0.87 0,-0.74 0.02,-1.63 0.03,-2.34 0,-0.02 -0.01,-0.04 -0.03,-0.04 -0.14,0.01 -1.63,0.05 -2.05,0.07 0,0.26 -0.01,0.56 -0.01,0.83l0.44 0.02c0,0.66 -0.01,1.46 -0.01,2.22 0,0.62 0.76,1.43 1.37,1.43 0.4,0 0.61,-0.03 1.45,-0.51l0.04 0z"/>
   <path class="fil0" d="M28.82 56.97l-3.6 3.39c-1.46,0.25 -1.62,-0.78 -2.59,-2.28 -0.89,-1.37 -1.46,-2.22 -2.54,-3.45l-4.24 3.34 4.53 5.7 -0.88 0.79 -0.57 0.6 -0.65 0.23 -1.92 1.14 -0.59 1.04c0.66,2.14 0.59,1.91 0.31,3.88l1.58 1.52 5.98 -4.52 0.88 1.6 1.09 1.03 0.69 1.13 0.47 1.2 1.63 0.9 3.25 -2.53c0.3,-1.35 0.31,-0.85 -0.51,-2.13 -0.13,-0.2 -0.91,-1.02 -1.21,-1.41l-0.43 -0.53 -0.69 -0.94 -1.3 -1.53 6.35 -4.76 -3.52 -4.15 -1.52 0.75z"/>
   <path class="fil4" d="M43.78 66.98c0.8,-0.96 1.82,-2.19 3.45,-4.38 -0.08,-0.37 -0.19,-0.8 -0.31,-1.15l-3.44 -0.01c-0.31,0 -0.97,-0.02 -1.07,-0.02 -0.13,0.69 -0.26,1.39 -0.38,2.09 0.33,0.07 0.72,0.14 1.06,0.21l0.35 -1c0.04,-0.11 0.1,-0.2 0.21,-0.24 0.13,-0.04 0.26,-0.05 0.98,-0.05 0.2,0 0.4,0 0.61,0l0.02 0.04c-1.05,1.43 -1.99,2.73 -3.48,4.72 0.09,0.25 0.2,0.56 0.32,0.81 0.21,0 1.02,0 1.58,0 1.82,0 2.98,0.01 3.19,0.01 0.17,-0.69 0.33,-1.4 0.49,-2.09 -0.32,-0.07 -0.72,-0.15 -1.08,-0.21l-0.31 0.89c-0.05,0.14 -0.14,0.25 -0.31,0.3 -0.33,0.08 -1.07,0.12 -1.85,0.12l-0.02 -0.04z"/>
   <path id="_1_0" class="fil4" d="M50.71 67.65c0.15,0.19 0.28,0.35 0.38,0.44 0.81,0 1.53,-0.14 1.69,-0.2 0.01,-0.26 0,-0.57 0,-0.83l-0.54 0.02c-0.05,0.01 -0.05,-0.01 -0.05,-0.07 0.01,-0.43 0.02,-1.4 0.02,-2.06 0,-0.86 -0.77,-1.52 -1.55,-1.52 -0.97,0 -1.72,0.4 -2.45,1 0.16,0.24 0.34,0.51 0.53,0.72 0.4,-0.27 0.94,-0.57 1.27,-0.57 0.46,0 0.65,0.3 0.62,0.8 -0.1,0 -0.27,0 -0.49,0 -1.61,0 -2.27,0.97 -2.27,1.53 0,0.65 0.78,1.18 1.3,1.18 0.38,0 0.87,-0.14 1.48,-0.44l0.05 0zm-1.22 -0.91c0,-0.32 0.28,-0.61 0.95,-0.61 0.07,0 0.15,0 0.21,0.01 0,0.26 0,0.45 0,0.7 0,0.01 0,0.04 -0.02,0.06 -0.15,0.09 -0.41,0.22 -0.68,0.22 -0.2,0 -0.47,-0.15 -0.47,-0.38z"/>
   <path id="_2_1" class="fil4" d="M53.24 66.07c0,1.26 0.96,2.03 2.19,2.03 0.41,0 1.21,-0.14 1.87,-0.5 -0.04,-0.24 -0.12,-0.55 -0.19,-0.81 -0.3,0.12 -0.77,0.27 -1.16,0.27 -0.21,0 -0.52,-0.04 -0.69,-0.24 -0.18,-0.21 -0.31,-0.49 -0.31,-0.97 0,-0.46 0.05,-0.76 0.21,-1.03 0.14,-0.24 0.33,-0.31 0.56,-0.31 0.4,0 0.92,0.25 1.05,0.3 0.2,-0.11 0.52,-0.82 0.52,-1.12 -0.24,-0.15 -0.76,-0.25 -1.12,-0.25 -1.79,0 -2.92,1.2 -2.92,2.63zm2.49 -4.04c-0.36,-0.33 -0.72,-0.67 -1.04,-0.97 -0.17,0.12 -0.35,0.27 -0.52,0.43 0.4,0.45 0.85,0.97 1.22,1.42 0.2,0.01 0.46,0.01 0.65,0.01 0.36,-0.41 0.88,-1.03 1.23,-1.43 -0.13,-0.15 -0.31,-0.32 -0.48,-0.44 -0.32,0.29 -0.7,0.65 -1.07,0.98z"/>
   <path id="_3_2" class="fil4" d="M60.49 67.65c0.15,0.19 0.28,0.35 0.38,0.44 0.81,0 1.53,-0.14 1.69,-0.2 0.01,-0.26 0,-0.57 0,-0.83l-0.54 0.02c-0.05,0.01 -0.05,-0.01 -0.05,-0.07 0.01,-0.43 0.02,-1.4 0.02,-2.06 0,-0.86 -0.77,-1.52 -1.55,-1.52 -0.97,0 -1.72,0.4 -2.45,1 0.16,0.24 0.34,0.51 0.53,0.72 0.4,-0.27 0.94,-0.57 1.27,-0.57 0.46,0 0.65,0.3 0.62,0.8 -0.1,0 -0.27,0 -0.49,0 -1.61,0 -2.27,0.97 -2.27,1.53 0,0.65 0.78,1.18 1.3,1.18 0.38,0 0.87,-0.14 1.48,-0.44l0.05 0zm-1.22 -0.91c0,-0.32 0.28,-0.61 0.95,-0.61 0.07,0 0.15,0 0.21,0.01 0,0.26 0,0.45 0,0.7 0,0.01 0,0.04 -0.02,0.06 -0.15,0.09 -0.41,0.22 -0.68,0.22 -0.2,0 -0.47,-0.15 -0.47,-0.38zm1.84 -5.76c-0.52,0.5 -1.08,1.05 -1.59,1.53 0.16,0.19 0.31,0.36 0.45,0.53 0.57,-0.39 1.19,-0.85 1.81,-1.29 -0.2,-0.25 -0.43,-0.53 -0.68,-0.76z"/>
   <path id="_4_3" class="fil4" d="M64.67 68.1c0.75,0 1.49,-0.09 2.19,-0.36 -0.03,-0.26 -0.07,-0.58 -0.12,-0.85 -0.31,0.08 -0.7,0.15 -1.1,0.15 -0.22,0 -0.46,-0.17 -0.46,-0.46 0,-0.45 0,-0.82 0.01,-1.23 0,-0.56 0,-0.76 0,-0.84 0.46,0 1.09,0.01 1.52,0.01 0.03,-0.3 0.04,-0.66 0.04,-0.95 -0.48,0 -1.04,0.01 -1.56,0.01 0.01,-0.27 0.02,-1.19 0.03,-1.42 0,-0.03 -0.01,-0.04 -0.03,-0.04 -0.03,0 -0.99,0.29 -1.51,0.55 -0.02,0.24 -0.05,0.57 -0.07,0.84 0,0.05 -0.04,0.08 -0.07,0.08 -0.2,0.01 -0.46,0.04 -0.66,0.05 -0.02,0.28 -0.03,0.58 -0.03,0.86 0.24,0 0.54,0 0.71,0 0,0.09 -0.01,1.11 -0.01,1.32 0,0.12 -0.01,0.61 -0.01,1.17 0,0.28 0.03,0.52 0.35,0.8 0.25,0.23 0.52,0.3 0.78,0.3z"/>
   <path id="_5_4" class="fil4" d="M67.2 66c0,1.44 1.03,2.09 2.37,2.09 0.49,0 1.37,-0.2 1.96,-0.48 -0.04,-0.25 -0.11,-0.58 -0.19,-0.84 -0.32,0.12 -0.98,0.28 -1.43,0.28 -0.25,0 -0.52,-0.02 -0.75,-0.24 -0.13,-0.12 -0.25,-0.32 -0.27,-0.66 0.9,0 1.93,0 2.2,-0.03 0.08,-0.01 0.54,-0.44 0.55,-0.59 0,-0.66 -0.19,-1.19 -0.52,-1.58 -0.27,-0.3 -0.75,-0.54 -1.37,-0.54 -1.52,0 -2.55,1.13 -2.55,2.57zm2.35 -1.72c0.22,0 0.37,0.12 0.45,0.3 0.08,0.15 0.12,0.42 0.12,0.64 0,0.07 -0.03,0.11 -0.09,0.11 -0.29,0.01 -0.79,0.02 -1.14,0.02 -0.01,-0.4 0.06,-0.6 0.18,-0.8 0.14,-0.22 0.31,-0.27 0.48,-0.27z"/>
   <path id="_6_5" class="fil4" d="M72.7 62.07c0,1.51 -0.01,3.46 -0.01,5.03 0,0.01 -0.01,0.04 -0.03,0.04l-0.5 0.03c-0.01,0.26 -0.02,0.57 -0.02,0.83 0.41,0 0.89,-0.01 1.3,-0.01 0.41,0 0.9,0 1.23,0 0.01,-0.26 0.01,-0.56 0.01,-0.82l-0.36 -0.03c0,-0.33 0.01,-0.82 0.01,-1.14 0.14,-0.01 0.26,-0.01 0.39,-0.01 0.16,0 0.34,0.38 0.5,0.84 0.17,0.52 0.3,0.94 0.43,1.19 0.14,-0.01 1.64,-0.02 2.01,-0.02 0.02,-0.26 0.02,-0.57 0.02,-0.84l-0.52 -0.02c-0.05,0 -0.11,-0.03 -0.15,-0.09 -0.07,-0.13 -0.18,-0.39 -0.31,-0.71 -0.25,-0.6 -0.52,-0.81 -0.73,-0.96l0 -0.06c0.28,-0.22 0.62,-0.5 1.11,-0.91l0.37 -0.03c0.01,-0.27 0.01,-0.57 0.01,-0.84 -0.27,0 -0.6,0 -0.87,0.01 -0.42,0 -0.97,0.01 -1.42,0.01 -0.01,0.26 -0.01,0.57 -0.01,0.84l0.37 0.02c0.02,0 0.04,0.01 0.02,0.04 -0.26,0.31 -0.53,0.55 -0.71,0.71 -0.17,0.02 -0.35,0.02 -0.53,0.03 0.01,-1.57 0.02,-3.06 0.02,-4.23 0,-0.03 -0.01,-0.04 -0.02,-0.04 -0.1,0 -1.72,0.21 -2.28,0.28 0,0.26 -0.01,0.56 -0.01,0.84l0.65 0.02z"/>
   <path id="_7_6" class="fil4" d="M82.32 64.01c-0.04,-0.19 -0.07,-0.37 -0.11,-0.57 0,-0.01 0,-0.02 -0.02,-0.02 -0.05,0 -1.58,0.26 -2.05,0.32 -0.01,0.26 -0.02,0.56 -0.02,0.83l0.64 0.01 -0.01 4.89c0,0.03 -0.01,0.05 -0.04,0.05l-0.49 0.04c-0.01,0.27 -0.01,0.57 -0.01,0.83 0.4,-0.01 0.93,-0.01 1.33,-0.01 0.54,-0.01 1.14,-0.01 1.63,-0.01 0.01,-0.26 0.01,-0.56 0.01,-0.83l-0.82 -0.03c0,-0.52 0,-1.04 -0.01,-1.55l0.07 -0.02c0.22,0.09 0.51,0.14 0.89,0.14 0.4,0 0.88,-0.17 1.08,-0.32 0.39,-0.3 0.64,-0.68 0.77,-0.98 0.19,-0.42 0.31,-0.9 0.31,-1.35 0.01,-1.05 -0.7,-2 -1.54,-2 -0.42,0 -0.54,0.04 -1.56,0.59l-0.06 -0.01zm1.43 1.8c0,0.54 -0.09,0.9 -0.23,1.11 -0.13,0.19 -0.33,0.26 -0.52,0.26 -0.21,0 -0.62,-0.15 -0.62,-0.35 0,-0.57 0.01,-1.38 0.02,-1.94 0.29,-0.18 0.59,-0.28 0.79,-0.28 0.19,0 0.31,0.14 0.39,0.26 0.1,0.15 0.16,0.48 0.16,0.94z"/>
   <path id="_8_7" class="fil4" d="M86.53 62.08c0,1.5 0,3.47 0,5.01 0,0.03 -0.01,0.05 -0.03,0.05l-0.55 0.03c0,0.26 -0.01,0.57 -0.01,0.83 0.42,0 0.96,-0.01 1.39,-0.01 0.48,0 1,0 1.41,0 0,-0.26 0.01,-0.56 0.01,-0.83l-0.59 -0.02c0.01,-1.88 0.03,-4.5 0.04,-6.18 0,-0.03 -0.01,-0.04 -0.03,-0.04 -0.1,0 -1.75,0.21 -2.31,0.27 -0.01,0.26 -0.02,0.57 -0.02,0.84l0.69 0.04z"/>
   <path id="_9_8" class="fil4" d="M89.2 66c0,1.44 1.03,2.09 2.37,2.09 0.49,0 1.37,-0.2 1.96,-0.48 -0.04,-0.25 -0.11,-0.58 -0.19,-0.84 -0.32,0.12 -0.98,0.28 -1.43,0.28 -0.25,0 -0.52,-0.02 -0.75,-0.24 -0.13,-0.12 -0.25,-0.32 -0.27,-0.66 0.9,0 1.93,0 2.2,-0.03 0.08,-0.01 0.54,-0.44 0.55,-0.59 0,-0.66 -0.19,-1.19 -0.52,-1.58 -0.27,-0.3 -0.75,-0.54 -1.37,-0.54 -1.52,0 -2.55,1.13 -2.55,2.57zm2.35 -1.72c0.22,0 0.37,0.12 0.45,0.3 0.08,0.15 0.12,0.42 0.12,0.64 0,0.07 -0.03,0.11 -0.09,0.11 -0.29,0.01 -0.79,0.02 -1.14,0.02 -0.01,-0.4 0.06,-0.6 0.18,-0.8 0.14,-0.22 0.31,-0.27 0.48,-0.27z"/>
   <path id="_10_9" class="fil4" d="M95.11 66.39c-0.3,0.04 -0.61,0.1 -0.89,0.16 0.05,0.46 0.1,0.92 0.16,1.39 0.33,0.1 0.86,0.16 1.33,0.16 0.64,0 1.18,-0.1 1.51,-0.25 0.55,-0.27 0.89,-0.75 0.89,-1.31 0,-0.81 -0.5,-1.1 -1.22,-1.3 -0.78,-0.21 -0.95,-0.26 -0.95,-0.49 0,-0.19 0.09,-0.29 0.18,-0.35 0.09,-0.06 0.26,-0.08 0.38,-0.08 0.12,0 0.28,0.03 0.39,0.11 0.04,0.02 0.06,0.07 0.07,0.11l0.15 0.54c0.31,-0.04 0.64,-0.09 0.91,-0.14 -0.04,-0.45 -0.09,-0.91 -0.14,-1.35 -0.17,-0.06 -0.66,-0.13 -1.21,-0.13 -0.66,0 -1.12,0.13 -1.45,0.29 -0.42,0.2 -0.87,0.66 -0.87,1.26 0,0.64 0.44,1.08 1.35,1.34 0.69,0.18 0.81,0.25 0.81,0.51 0,0.17 -0.1,0.27 -0.22,0.33 -0.12,0.05 -0.25,0.05 -0.39,0.05 -0.18,0 -0.38,-0.05 -0.56,-0.15 -0.06,-0.04 -0.07,-0.08 -0.08,-0.11l-0.16 -0.58z"/>
   <path id="_11_10" class="fil4" d="M102.03 67.59c0.18,0.24 0.32,0.39 0.48,0.51 0.66,0 1.55,-0.14 1.65,-0.19 0.01,-0.27 0.01,-0.58 0.01,-0.84l-0.57 0.02c-0.03,0 -0.04,-0.02 -0.04,-0.06 0,-1.16 0.02,-2.38 0.03,-3.45 0,-0.01 -0.01,-0.04 -0.02,-0.04 -0.15,0 -1.74,0.03 -2.12,0.04 0,0.26 -0.01,0.58 -0.01,0.86l0.5 0.02c0,0.62 0.01,1.62 0,2.31 -0.19,0.14 -0.44,0.21 -0.61,0.21 -0.14,0 -0.28,-0.01 -0.4,-0.2 -0.13,-0.22 -0.12,-0.58 -0.12,-0.87 0,-0.74 0.02,-1.63 0.03,-2.34 0,-0.02 -0.01,-0.04 -0.03,-0.04 -0.14,0.01 -1.63,0.05 -2.05,0.07 0,0.26 -0.01,0.56 -0.01,0.83l0.44 0.02c0,0.66 -0.01,1.46 -0.01,2.22 0,0.62 0.76,1.43 1.37,1.43 0.4,0 0.61,-0.03 1.45,-0.51l0.04 0z"/>
   <path class="fil0" d="M96.34 114.62l-4.82 1.14c-1.39,-0.52 -1.02,-1.49 -1.11,-3.27 -0.08,-1.63 -0.15,-2.66 -0.47,-4.26l-5.34 0.77 1.07 7.2 -1.16 0.25 -0.8 0.23 -0.67 -0.13 -2.23 0.02 -1.02 0.6c-0.5,2.18 -0.44,1.95 -1.67,3.51l0.61 2.1 7.44 -0.93 -0.04 1.82 0.43 1.44 0.03 1.33 -0.19 1.28 0.96 1.59 4.08 -0.57c0.94,-1.02 0.69,-0.58 0.63,-2.1 -0.01,-0.24 -0.28,-1.34 -0.34,-1.83l-0.1 -0.68 -0.13 -1.16 -0.36 -1.97 7.88 -0.95 -0.97 -5.35 -1.69 -0.11z"/>
   <path class="fil4" d="M12.11 120.15c0.8,-0.96 1.82,-2.19 3.45,-4.38 -0.08,-0.37 -0.19,-0.8 -0.31,-1.15l-3.44 -0.01c-0.31,0 -0.97,-0.02 -1.07,-0.02 -0.13,0.69 -0.26,1.39 -0.38,2.09 0.33,0.07 0.72,0.14 1.06,0.21l0.35 -1c0.04,-0.11 0.1,-0.2 0.21,-0.24 0.13,-0.04 0.26,-0.05 0.98,-0.05 0.2,0 0.4,0 0.61,0l0.02 0.04c-1.05,1.43 -1.99,2.73 -3.48,4.72 0.09,0.25 0.2,0.56 0.32,0.81 0.21,0 1.02,0 1.58,0 1.82,0 2.98,0.01 3.19,0.01 0.17,-0.69 0.33,-1.4 0.49,-2.09 -0.32,-0.07 -0.72,-0.15 -1.08,-0.21l-0.31 0.89c-0.05,0.14 -0.14,0.25 -0.31,0.3 -0.33,0.08 -1.07,0.12 -1.85,0.12l-0.02 -0.04z"/>
   <path id="_1_11" class="fil4" d="M19.05 120.83c0.15,0.19 0.28,0.35 0.38,0.44 0.81,0 1.53,-0.14 1.69,-0.2 0.01,-0.26 0,-0.57 0,-0.83l-0.54 0.02c-0.05,0.01 -0.05,-0.01 -0.05,-0.07 0.01,-0.43 0.02,-1.4 0.02,-2.06 0,-0.86 -0.77,-1.52 -1.55,-1.52 -0.97,0 -1.72,0.4 -2.45,1 0.16,0.24 0.34,0.51 0.53,0.72 0.4,-0.27 0.94,-0.57 1.27,-0.57 0.46,0 0.65,0.3 0.62,0.8 -0.1,0 -0.27,0 -0.49,0 -1.61,0 -2.27,0.97 -2.27,1.53 0,0.65 0.78,1.18 1.3,1.18 0.38,0 0.87,-0.14 1.48,-0.44l0.05 0zm-1.22 -0.91c0,-0.32 0.28,-0.61 0.95,-0.61 0.07,0 0.15,0 0.21,0.01 0,0.26 0,0.45 0,0.7 0,0.01 0,0.04 -0.02,0.06 -0.15,0.09 -0.41,0.22 -0.68,0.22 -0.2,0 -0.47,-0.15 -0.47,-0.38z"/>
   <path id="_2_12" class="fil4" d="M21.57 119.24c0,1.26 0.96,2.03 2.19,2.03 0.41,0 1.21,-0.14 1.87,-0.5 -0.04,-0.24 -0.12,-0.55 -0.19,-0.81 -0.3,0.12 -0.77,0.27 -1.16,0.27 -0.21,0 -0.52,-0.04 -0.69,-0.24 -0.18,-0.21 -0.31,-0.49 -0.31,-0.97 0,-0.46 0.05,-0.76 0.21,-1.03 0.14,-0.24 0.33,-0.31 0.56,-0.31 0.4,0 0.92,0.25 1.05,0.3 0.2,-0.11 0.52,-0.82 0.52,-1.12 -0.24,-0.15 -0.76,-0.25 -1.12,-0.25 -1.79,0 -2.92,1.2 -2.92,2.63zm2.49 -4.04c-0.36,-0.33 -0.72,-0.67 -1.04,-0.97 -0.17,0.12 -0.35,0.27 -0.52,0.43 0.4,0.45 0.85,0.97 1.22,1.42 0.2,0.01 0.46,0.01 0.65,0.01 0.36,-0.41 0.88,-1.03 1.23,-1.43 -0.13,-0.15 -0.31,-0.32 -0.48,-0.44 -0.32,0.29 -0.7,0.65 -1.07,0.98z"/>
   <path id="_3_13" class="fil4" d="M28.82 120.83c0.15,0.19 0.28,0.35 0.38,0.44 0.81,0 1.53,-0.14 1.69,-0.2 0.01,-0.26 0,-0.57 0,-0.83l-0.54 0.02c-0.05,0.01 -0.05,-0.01 -0.05,-0.07 0.01,-0.43 0.02,-1.4 0.02,-2.06 0,-0.86 -0.77,-1.52 -1.55,-1.52 -0.97,0 -1.72,0.4 -2.45,1 0.16,0.24 0.34,0.51 0.53,0.72 0.4,-0.27 0.94,-0.57 1.27,-0.57 0.46,0 0.65,0.3 0.62,0.8 -0.1,0 -0.27,0 -0.49,0 -1.61,0 -2.27,0.97 -2.27,1.53 0,0.65 0.78,1.18 1.3,1.18 0.38,0 0.87,-0.14 1.48,-0.44l0.05 0zm-1.22 -0.91c0,-0.32 0.28,-0.61 0.95,-0.61 0.07,0 0.15,0 0.21,0.01 0,0.26 0,0.45 0,0.7 0,0.01 0,0.04 -0.02,0.06 -0.15,0.09 -0.41,0.22 -0.68,0.22 -0.2,0 -0.47,-0.15 -0.47,-0.38zm1.84 -5.76c-0.52,0.5 -1.08,1.05 -1.59,1.53 0.16,0.19 0.31,0.36 0.45,0.53 0.57,-0.39 1.19,-0.85 1.81,-1.29 -0.2,-0.25 -0.43,-0.53 -0.68,-0.76z"/>
   <path id="_4_14" class="fil4" d="M33 121.27c0.75,0 1.49,-0.09 2.19,-0.36 -0.03,-0.26 -0.07,-0.58 -0.12,-0.85 -0.31,0.08 -0.7,0.15 -1.1,0.15 -0.22,0 -0.46,-0.17 -0.46,-0.46 0,-0.45 0,-0.82 0.01,-1.23 0,-0.56 0,-0.76 0,-0.84 0.46,0 1.09,0.01 1.52,0.01 0.03,-0.3 0.04,-0.66 0.04,-0.95 -0.48,0 -1.04,0.01 -1.56,0.01 0.01,-0.27 0.02,-1.19 0.03,-1.42 0,-0.03 -0.01,-0.04 -0.03,-0.04 -0.03,0 -0.99,0.29 -1.51,0.55 -0.02,0.24 -0.05,0.57 -0.07,0.84 0,0.05 -0.04,0.08 -0.07,0.08 -0.2,0.01 -0.46,0.04 -0.66,0.05 -0.02,0.28 -0.03,0.58 -0.03,0.86 0.24,0 0.54,0 0.71,0 0,0.09 -0.01,1.11 -0.01,1.32 0,0.12 -0.01,0.61 -0.01,1.17 0,0.28 0.03,0.52 0.35,0.8 0.25,0.23 0.52,0.3 0.78,0.3z"/>
   <path id="_5_15" class="fil4" d="M35.54 119.18c0,1.44 1.03,2.09 2.37,2.09 0.49,0 1.37,-0.2 1.96,-0.48 -0.04,-0.25 -0.11,-0.58 -0.19,-0.84 -0.32,0.12 -0.98,0.28 -1.43,0.28 -0.25,0 -0.52,-0.02 -0.75,-0.24 -0.13,-0.12 -0.25,-0.32 -0.27,-0.66 0.9,0 1.93,0 2.2,-0.03 0.08,-0.01 0.54,-0.44 0.55,-0.59 0,-0.66 -0.19,-1.19 -0.52,-1.58 -0.27,-0.3 -0.75,-0.54 -1.37,-0.54 -1.52,0 -2.55,1.13 -2.55,2.57zm2.35 -1.72c0.22,0 0.37,0.12 0.45,0.3 0.08,0.15 0.12,0.42 0.12,0.64 0,0.07 -0.03,0.11 -0.09,0.11 -0.29,0.01 -0.79,0.02 -1.14,0.02 -0.01,-0.4 0.06,-0.6 0.18,-0.8 0.14,-0.22 0.31,-0.27 0.48,-0.27z"/>
   <path id="_6_16" class="fil4" d="M41.04 115.25c0,1.51 -0.01,3.46 -0.01,5.03 0,0.01 -0.01,0.04 -0.03,0.04l-0.5 0.03c-0.01,0.26 -0.02,0.57 -0.02,0.83 0.41,0 0.89,-0.01 1.3,-0.01 0.41,0 0.9,0 1.23,0 0.01,-0.26 0.01,-0.56 0.01,-0.82l-0.36 -0.03c0,-0.33 0.01,-0.82 0.01,-1.14 0.14,-0.01 0.26,-0.01 0.39,-0.01 0.16,0 0.34,0.38 0.5,0.84 0.17,0.52 0.3,0.94 0.43,1.19 0.14,-0.01 1.64,-0.02 2.01,-0.02 0.02,-0.26 0.02,-0.57 0.02,-0.84l-0.52 -0.02c-0.05,0 -0.11,-0.03 -0.15,-0.09 -0.07,-0.13 -0.18,-0.39 -0.31,-0.71 -0.25,-0.6 -0.52,-0.81 -0.73,-0.96l0 -0.06c0.28,-0.22 0.62,-0.5 1.11,-0.91l0.37 -0.03c0.01,-0.27 0.01,-0.57 0.01,-0.84 -0.27,0 -0.6,0 -0.87,0.01 -0.42,0 -0.97,0.01 -1.42,0.01 -0.01,0.26 -0.01,0.57 -0.01,0.84l0.37 0.02c0.02,0 0.04,0.01 0.02,0.04 -0.26,0.31 -0.53,0.55 -0.71,0.71 -0.17,0.02 -0.35,0.02 -0.53,0.03 0.01,-1.57 0.02,-3.06 0.02,-4.23 0,-0.03 -0.01,-0.04 -0.02,-0.04 -0.1,0 -1.72,0.21 -2.28,0.28 0,0.26 -0.01,0.56 -0.01,0.84l0.65 0.02z"/>
   <path id="_7_17" class="fil4" d="M50.65 117.19c-0.04,-0.19 -0.07,-0.37 -0.11,-0.57 0,-0.01 0,-0.02 -0.02,-0.02 -0.05,0 -1.58,0.26 -2.05,0.32 -0.01,0.26 -0.02,0.56 -0.02,0.83l0.64 0.01 -0.01 4.89c0,0.03 -0.01,0.05 -0.04,0.05l-0.49 0.04c-0.01,0.27 -0.01,0.57 -0.01,0.83 0.4,-0.01 0.93,-0.01 1.33,-0.01 0.54,-0.01 1.14,-0.01 1.63,-0.01 0.01,-0.26 0.01,-0.56 0.01,-0.83l-0.82 -0.03c0,-0.52 0,-1.04 -0.01,-1.55l0.07 -0.02c0.22,0.09 0.51,0.14 0.89,0.14 0.4,0 0.88,-0.17 1.08,-0.32 0.39,-0.3 0.64,-0.68 0.77,-0.98 0.19,-0.42 0.31,-0.9 0.31,-1.35 0.01,-1.05 -0.7,-2 -1.54,-2 -0.42,0 -0.54,0.04 -1.56,0.59l-0.06 -0.01zm1.43 1.8c0,0.54 -0.09,0.9 -0.23,1.11 -0.13,0.19 -0.33,0.26 -0.52,0.26 -0.21,0 -0.62,-0.15 -0.62,-0.35 0,-0.57 0.01,-1.38 0.02,-1.94 0.29,-0.18 0.59,-0.28 0.79,-0.28 0.19,0 0.31,0.14 0.39,0.26 0.1,0.15 0.16,0.48 0.16,0.94z"/>
   <path id="_8_18" class="fil4" d="M54.86 115.26c0,1.5 0,3.47 0,5.01 0,0.03 -0.01,0.05 -0.03,0.05l-0.55 0.03c0,0.26 -0.01,0.57 -0.01,0.83 0.42,0 0.96,-0.01 1.39,-0.01 0.48,0 1,0 1.41,0 0,-0.26 0.01,-0.56 0.01,-0.83l-0.59 -0.02c0.01,-1.88 0.03,-4.5 0.04,-6.18 0,-0.03 -0.01,-0.04 -0.03,-0.04 -0.1,0 -1.75,0.21 -2.31,0.27 -0.01,0.26 -0.02,0.57 -0.02,0.84l0.69 0.04z"/>
   <path id="_9_19" class="fil4" d="M57.54 119.18c0,1.44 1.03,2.09 2.37,2.09 0.49,0 1.37,-0.2 1.96,-0.48 -0.04,-0.25 -0.11,-0.58 -0.19,-0.84 -0.32,0.12 -0.98,0.28 -1.43,0.28 -0.25,0 -0.52,-0.02 -0.75,-0.24 -0.13,-0.12 -0.25,-0.32 -0.27,-0.66 0.9,0 1.93,0 2.2,-0.03 0.08,-0.01 0.54,-0.44 0.55,-0.59 0,-0.66 -0.19,-1.19 -0.52,-1.58 -0.27,-0.3 -0.75,-0.54 -1.37,-0.54 -1.52,0 -2.55,1.13 -2.55,2.57zm2.35 -1.72c0.22,0 0.37,0.12 0.45,0.3 0.08,0.15 0.12,0.42 0.12,0.64 0,0.07 -0.03,0.11 -0.09,0.11 -0.29,0.01 -0.79,0.02 -1.14,0.02 -0.01,-0.4 0.06,-0.6 0.18,-0.8 0.14,-0.22 0.31,-0.27 0.48,-0.27z"/>
   <path id="_10_20" class="fil4" d="M63.44 119.57c-0.3,0.04 -0.61,0.1 -0.89,0.16 0.05,0.46 0.1,0.92 0.16,1.39 0.33,0.1 0.86,0.16 1.33,0.16 0.64,0 1.18,-0.1 1.51,-0.25 0.55,-0.27 0.89,-0.75 0.89,-1.31 0,-0.81 -0.5,-1.1 -1.22,-1.3 -0.78,-0.21 -0.95,-0.26 -0.95,-0.49 0,-0.19 0.09,-0.29 0.18,-0.35 0.09,-0.06 0.26,-0.08 0.38,-0.08 0.12,0 0.28,0.03 0.39,0.11 0.04,0.02 0.06,0.07 0.07,0.11l0.15 0.54c0.31,-0.04 0.64,-0.09 0.91,-0.14 -0.04,-0.45 -0.09,-0.91 -0.14,-1.35 -0.17,-0.06 -0.66,-0.13 -1.21,-0.13 -0.66,0 -1.12,0.13 -1.45,0.29 -0.42,0.2 -0.87,0.66 -0.87,1.26 0,0.64 0.44,1.08 1.35,1.34 0.69,0.18 0.81,0.25 0.81,0.51 0,0.17 -0.1,0.27 -0.22,0.33 -0.12,0.05 -0.25,0.05 -0.39,0.05 -0.18,0 -0.38,-0.05 -0.56,-0.15 -0.06,-0.04 -0.07,-0.08 -0.08,-0.11l-0.16 -0.58z"/>
   <path id="_11_21" class="fil4" d="M70.37 120.77c0.18,0.24 0.32,0.39 0.48,0.51 0.66,0 1.55,-0.14 1.65,-0.19 0.01,-0.27 0.01,-0.58 0.01,-0.84l-0.57 0.02c-0.03,0 -0.04,-0.02 -0.04,-0.06 0,-1.16 0.02,-2.38 0.03,-3.45 0,-0.01 -0.01,-0.04 -0.02,-0.04 -0.15,0 -1.74,0.03 -2.12,0.04 0,0.26 -0.01,0.58 -0.01,0.86l0.5 0.02c0,0.62 0.01,1.62 0,2.31 -0.19,0.14 -0.44,0.21 -0.61,0.21 -0.14,0 -0.28,-0.01 -0.4,-0.2 -0.13,-0.22 -0.12,-0.58 -0.12,-0.87 0,-0.74 0.02,-1.63 0.03,-2.34 0,-0.02 -0.01,-0.04 -0.03,-0.04 -0.14,0.01 -1.63,0.05 -2.05,0.07 0,0.26 -0.01,0.56 -0.01,0.83l0.44 0.02c0,0.66 -0.01,1.46 -0.01,2.22 0,0.62 0.76,1.43 1.37,1.43 0.4,0 0.61,-0.03 1.45,-0.51l0.04 0z"/>
   <path class="fil0" d="M83.48 174.06l4.95 0.15c1.21,0.86 0.6,1.7 0.22,3.44 -0.34,1.59 -0.54,2.61 -0.65,4.23l5.36 0.63 0.83 -7.23 1.19 0.06 0.83 -0.02 0.62 0.3 2.16 0.56 1.15 -0.32c1.05,-1.98 0.93,-1.77 2.52,-2.96l-0.04 -2.19 -7.43 -1.03 0.51 -1.75 -0.04 -1.5 0.31 -1.29 0.52 -1.19 -0.52 -1.79 -4.09 -0.51c-1.17,0.74 -0.82,0.38 -1.15,1.87 -0.05,0.23 -0.07,1.36 -0.14,1.85l-0.07 0.68 -0.17 1.15 -0.16 2 -7.86 -1.12 -0.45 5.42 1.6 0.55z"/>
   <path class="fil4" d="M12.06 173.11c0.8,-0.96 1.82,-2.19 3.45,-4.38 -0.08,-0.37 -0.19,-0.8 -0.31,-1.15l-3.44 -0.01c-0.31,0 -0.97,-0.02 -1.07,-0.02 -0.13,0.69 -0.26,1.39 -0.38,2.09 0.33,0.07 0.72,0.14 1.06,0.21l0.35 -1c0.04,-0.11 0.1,-0.2 0.21,-0.24 0.13,-0.04 0.26,-0.05 0.98,-0.05 0.2,0 0.4,0 0.61,0l0.02 0.04c-1.05,1.43 -1.99,2.73 -3.48,4.72 0.09,0.25 0.2,0.56 0.32,0.81 0.21,0 1.02,0 1.58,0 1.82,0 2.98,0.01 3.19,0.01 0.17,-0.69 0.33,-1.4 0.49,-2.09 -0.32,-0.07 -0.72,-0.15 -1.08,-0.21l-0.31 0.89c-0.05,0.14 -0.14,0.25 -0.31,0.3 -0.33,0.08 -1.07,0.12 -1.85,0.12l-0.02 -0.04z"/>
   <path id="_1_22" class="fil4" d="M19 173.79c0.15,0.19 0.28,0.35 0.38,0.44 0.81,0 1.53,-0.14 1.69,-0.2 0.01,-0.26 0,-0.57 0,-0.83l-0.54 0.02c-0.05,0.01 -0.05,-0.01 -0.05,-0.07 0.01,-0.43 0.02,-1.4 0.02,-2.06 0,-0.86 -0.77,-1.52 -1.55,-1.52 -0.97,0 -1.72,0.4 -2.45,1 0.16,0.24 0.34,0.51 0.53,0.72 0.4,-0.27 0.94,-0.57 1.27,-0.57 0.46,0 0.65,0.3 0.62,0.8 -0.1,0 -0.27,0 -0.49,0 -1.61,0 -2.27,0.97 -2.27,1.53 0,0.65 0.78,1.18 1.3,1.18 0.38,0 0.87,-0.14 1.48,-0.44l0.05 0zm-1.22 -0.91c0,-0.32 0.28,-0.61 0.95,-0.61 0.07,0 0.15,0 0.21,0.01 0,0.26 0,0.45 0,0.7 0,0.01 0,0.04 -0.02,0.06 -0.15,0.09 -0.41,0.22 -0.68,0.22 -0.2,0 -0.47,-0.15 -0.47,-0.38z"/>
   <path id="_2_23" class="fil4" d="M21.52 172.2c0,1.26 0.96,2.03 2.19,2.03 0.41,0 1.21,-0.14 1.87,-0.5 -0.04,-0.24 -0.12,-0.55 -0.19,-0.81 -0.3,0.12 -0.77,0.27 -1.16,0.27 -0.21,0 -0.52,-0.04 -0.69,-0.24 -0.18,-0.21 -0.31,-0.49 -0.31,-0.97 0,-0.46 0.05,-0.76 0.21,-1.03 0.14,-0.24 0.33,-0.31 0.56,-0.31 0.4,0 0.92,0.25 1.05,0.3 0.2,-0.11 0.52,-0.82 0.52,-1.12 -0.24,-0.15 -0.76,-0.25 -1.12,-0.25 -1.79,0 -2.92,1.2 -2.92,2.63zm2.49 -4.04c-0.36,-0.33 -0.72,-0.67 -1.04,-0.97 -0.17,0.12 -0.35,0.27 -0.52,0.43 0.4,0.45 0.85,0.97 1.22,1.42 0.2,0.01 0.46,0.01 0.65,0.01 0.36,-0.41 0.88,-1.03 1.23,-1.43 -0.13,-0.15 -0.31,-0.32 -0.48,-0.44 -0.32,0.29 -0.7,0.65 -1.07,0.98z"/>
   <path id="_3_24" class="fil4" d="M28.77 173.79c0.15,0.19 0.28,0.35 0.38,0.44 0.81,0 1.53,-0.14 1.69,-0.2 0.01,-0.26 0,-0.57 0,-0.83l-0.54 0.02c-0.05,0.01 -0.05,-0.01 -0.05,-0.07 0.01,-0.43 0.02,-1.4 0.02,-2.06 0,-0.86 -0.77,-1.52 -1.55,-1.52 -0.97,0 -1.72,0.4 -2.45,1 0.16,0.24 0.34,0.51 0.53,0.72 0.4,-0.27 0.94,-0.57 1.27,-0.57 0.46,0 0.65,0.3 0.62,0.8 -0.1,0 -0.27,0 -0.49,0 -1.61,0 -2.27,0.97 -2.27,1.53 0,0.65 0.78,1.18 1.3,1.18 0.38,0 0.87,-0.14 1.48,-0.44l0.05 0zm-1.22 -0.91c0,-0.32 0.28,-0.61 0.95,-0.61 0.07,0 0.15,0 0.21,0.01 0,0.26 0,0.45 0,0.7 0,0.01 0,0.04 -0.02,0.06 -0.15,0.09 -0.41,0.22 -0.68,0.22 -0.2,0 -0.47,-0.15 -0.47,-0.38zm1.84 -5.76c-0.52,0.5 -1.08,1.05 -1.59,1.53 0.16,0.19 0.31,0.36 0.45,0.53 0.57,-0.39 1.19,-0.85 1.81,-1.29 -0.2,-0.25 -0.43,-0.53 -0.68,-0.76z"/>
   <path id="_4_25" class="fil4" d="M32.95 174.23c0.75,0 1.49,-0.09 2.19,-0.36 -0.03,-0.26 -0.07,-0.58 -0.12,-0.85 -0.31,0.08 -0.7,0.15 -1.1,0.15 -0.22,0 -0.46,-0.17 -0.46,-0.46 0,-0.45 0,-0.82 0.01,-1.23 0,-0.56 0,-0.76 0,-0.84 0.46,0 1.09,0.01 1.52,0.01 0.03,-0.3 0.04,-0.66 0.04,-0.95 -0.48,0 -1.04,0.01 -1.56,0.01 0.01,-0.27 0.02,-1.19 0.03,-1.42 0,-0.03 -0.01,-0.04 -0.03,-0.04 -0.03,0 -0.99,0.29 -1.51,0.55 -0.02,0.24 -0.05,0.57 -0.07,0.84 0,0.05 -0.04,0.08 -0.07,0.08 -0.2,0.01 -0.46,0.04 -0.66,0.05 -0.02,0.28 -0.03,0.58 -0.03,0.86 0.24,0 0.54,0 0.71,0 0,0.09 -0.01,1.11 -0.01,1.32 0,0.12 -0.01,0.61 -0.01,1.17 0,0.28 0.03,0.52 0.35,0.8 0.25,0.23 0.52,0.3 0.78,0.3z"/>
   <path id="_5_26" class="fil4" d="M35.49 172.14c0,1.44 1.03,2.09 2.37,2.09 0.49,0 1.37,-0.2 1.96,-0.48 -0.04,-0.25 -0.11,-0.58 -0.19,-0.84 -0.32,0.12 -0.98,0.28 -1.43,0.28 -0.25,0 -0.52,-0.02 -0.75,-0.24 -0.13,-0.12 -0.25,-0.32 -0.27,-0.66 0.9,0 1.93,0 2.2,-0.03 0.08,-0.01 0.54,-0.44 0.55,-0.59 0,-0.66 -0.19,-1.19 -0.52,-1.58 -0.27,-0.3 -0.75,-0.54 -1.37,-0.54 -1.52,0 -2.55,1.13 -2.55,2.57zm2.35 -1.72c0.22,0 0.37,0.12 0.45,0.3 0.08,0.15 0.12,0.42 0.12,0.64 0,0.07 -0.03,0.11 -0.09,0.11 -0.29,0.01 -0.79,0.02 -1.14,0.02 -0.01,-0.4 0.06,-0.6 0.18,-0.8 0.14,-0.22 0.31,-0.27 0.48,-0.27z"/>
   <path id="_6_27" class="fil4" d="M40.99 168.21c0,1.51 -0.01,3.46 -0.01,5.03 0,0.01 -0.01,0.04 -0.03,0.04l-0.5 0.03c-0.01,0.26 -0.02,0.57 -0.02,0.83 0.41,0 0.89,-0.01 1.3,-0.01 0.41,0 0.9,0 1.23,0 0.01,-0.26 0.01,-0.56 0.01,-0.82l-0.36 -0.03c0,-0.33 0.01,-0.82 0.01,-1.14 0.14,-0.01 0.26,-0.01 0.39,-0.01 0.16,0 0.34,0.38 0.5,0.84 0.17,0.52 0.3,0.94 0.43,1.19 0.14,-0.01 1.64,-0.02 2.01,-0.02 0.02,-0.26 0.02,-0.57 0.02,-0.84l-0.52 -0.02c-0.05,0 -0.11,-0.03 -0.15,-0.09 -0.07,-0.13 -0.18,-0.39 -0.31,-0.71 -0.25,-0.6 -0.52,-0.81 -0.73,-0.96l0 -0.06c0.28,-0.22 0.62,-0.5 1.11,-0.91l0.37 -0.03c0.01,-0.27 0.01,-0.57 0.01,-0.84 -0.27,0 -0.6,0 -0.87,0.01 -0.42,0 -0.97,0.01 -1.42,0.01 -0.01,0.26 -0.01,0.57 -0.01,0.84l0.37 0.02c0.02,0 0.04,0.01 0.02,0.04 -0.26,0.31 -0.53,0.55 -0.71,0.71 -0.17,0.02 -0.35,0.02 -0.53,0.03 0.01,-1.57 0.02,-3.06 0.02,-4.23 0,-0.03 -0.01,-0.04 -0.02,-0.04 -0.1,0 -1.72,0.21 -2.28,0.28 0,0.26 -0.01,0.56 -0.01,0.84l0.65 0.02z"/>
   <path id="_7_28" class="fil4" d="M50.6 170.15c-0.04,-0.19 -0.07,-0.37 -0.11,-0.57 0,-0.01 0,-0.02 -0.02,-0.02 -0.05,0 -1.58,0.26 -2.05,0.32 -0.01,0.26 -0.02,0.56 -0.02,0.83l0.64 0.01 -0.01 4.89c0,0.03 -0.01,0.05 -0.04,0.05l-0.49 0.04c-0.01,0.27 -0.01,0.57 -0.01,0.83 0.4,-0.01 0.93,-0.01 1.33,-0.01 0.54,-0.01 1.14,-0.01 1.63,-0.01 0.01,-0.26 0.01,-0.56 0.01,-0.83l-0.82 -0.03c0,-0.52 0,-1.04 -0.01,-1.55l0.07 -0.02c0.22,0.09 0.51,0.14 0.89,0.14 0.4,0 0.88,-0.17 1.08,-0.32 0.39,-0.3 0.64,-0.68 0.77,-0.98 0.19,-0.42 0.31,-0.9 0.31,-1.35 0.01,-1.05 -0.7,-2 -1.54,-2 -0.42,0 -0.54,0.04 -1.56,0.59l-0.06 -0.01zm1.43 1.8c0,0.54 -0.09,0.9 -0.23,1.11 -0.13,0.19 -0.33,0.26 -0.52,0.26 -0.21,0 -0.62,-0.15 -0.62,-0.35 0,-0.57 0.01,-1.38 0.02,-1.94 0.29,-0.18 0.59,-0.28 0.79,-0.28 0.19,0 0.31,0.14 0.39,0.26 0.1,0.15 0.16,0.48 0.16,0.94z"/>
   <path id="_8_29" class="fil4" d="M54.81 168.22c0,1.5 0,3.47 0,5.01 0,0.03 -0.01,0.05 -0.03,0.05l-0.55 0.03c0,0.26 -0.01,0.57 -0.01,0.83 0.42,0 0.96,-0.01 1.39,-0.01 0.48,0 1,0 1.41,0 0,-0.26 0.01,-0.56 0.01,-0.83l-0.59 -0.02c0.01,-1.88 0.03,-4.5 0.04,-6.18 0,-0.03 -0.01,-0.04 -0.03,-0.04 -0.1,0 -1.75,0.21 -2.31,0.27 -0.01,0.26 -0.02,0.57 -0.02,0.84l0.69 0.04z"/>
   <path id="_9_30" class="fil4" d="M57.49 172.14c0,1.44 1.03,2.09 2.37,2.09 0.49,0 1.37,-0.2 1.96,-0.48 -0.04,-0.25 -0.11,-0.58 -0.19,-0.84 -0.32,0.12 -0.98,0.28 -1.43,0.28 -0.25,0 -0.52,-0.02 -0.75,-0.24 -0.13,-0.12 -0.25,-0.32 -0.27,-0.66 0.9,0 1.93,0 2.2,-0.03 0.08,-0.01 0.54,-0.44 0.55,-0.59 0,-0.66 -0.19,-1.19 -0.52,-1.58 -0.27,-0.3 -0.75,-0.54 -1.37,-0.54 -1.52,0 -2.55,1.13 -2.55,2.57zm2.35 -1.72c0.22,0 0.37,0.12 0.45,0.3 0.08,0.15 0.12,0.42 0.12,0.64 0,0.07 -0.03,0.11 -0.09,0.11 -0.29,0.01 -0.79,0.02 -1.14,0.02 -0.01,-0.4 0.06,-0.6 0.18,-0.8 0.14,-0.22 0.31,-0.27 0.48,-0.27z"/>
   <path id="_10_31" class="fil4" d="M63.39 172.53c-0.3,0.04 -0.61,0.1 -0.89,0.16 0.05,0.46 0.1,0.92 0.16,1.39 0.33,0.1 0.86,0.16 1.33,0.16 0.64,0 1.18,-0.1 1.51,-0.25 0.55,-0.27 0.89,-0.75 0.89,-1.31 0,-0.81 -0.5,-1.1 -1.22,-1.3 -0.78,-0.21 -0.95,-0.26 -0.95,-0.49 0,-0.19 0.09,-0.29 0.18,-0.35 0.09,-0.06 0.26,-0.08 0.38,-0.08 0.12,0 0.28,0.03 0.39,0.11 0.04,0.02 0.06,0.07 0.07,0.11l0.15 0.54c0.31,-0.04 0.64,-0.09 0.91,-0.14 -0.04,-0.45 -0.09,-0.91 -0.14,-1.35 -0.17,-0.06 -0.66,-0.13 -1.21,-0.13 -0.66,0 -1.12,0.13 -1.45,0.29 -0.42,0.2 -0.87,0.66 -0.87,1.26 0,0.64 0.44,1.08 1.35,1.34 0.69,0.18 0.81,0.25 0.81,0.51 0,0.17 -0.1,0.27 -0.22,0.33 -0.12,0.05 -0.25,0.05 -0.39,0.05 -0.18,0 -0.38,-0.05 -0.56,-0.15 -0.06,-0.04 -0.07,-0.08 -0.08,-0.11l-0.16 -0.58z"/>
   <path id="_11_32" class="fil4" d="M70.32 173.73c0.18,0.24 0.32,0.39 0.48,0.51 0.66,0 1.55,-0.14 1.65,-0.19 0.01,-0.27 0.01,-0.58 0.01,-0.84l-0.57 0.02c-0.03,0 -0.04,-0.02 -0.04,-0.06 0,-1.16 0.02,-2.38 0.03,-3.45 0,-0.01 -0.01,-0.04 -0.02,-0.04 -0.15,0 -1.74,0.03 -2.12,0.04 0,0.26 -0.01,0.58 -0.01,0.86l0.5 0.02c0,0.62 0.01,1.62 0,2.31 -0.19,0.14 -0.44,0.21 -0.61,0.21 -0.14,0 -0.28,-0.01 -0.4,-0.2 -0.13,-0.22 -0.12,-0.58 -0.12,-0.87 0,-0.74 0.02,-1.63 0.03,-2.34 0,-0.02 -0.01,-0.04 -0.03,-0.04 -0.14,0.01 -1.63,0.05 -2.05,0.07 0,0.26 -0.01,0.56 -0.01,0.83l0.44 0.02c0,0.66 -0.01,1.46 -0.01,2.22 0,0.62 0.76,1.43 1.37,1.43 0.4,0 0.61,-0.03 1.45,-0.51l0.04 0z"/>
   <path class="fil0" d="M84.54 218.58l-3.6 3.39c-1.46,0.25 -1.62,-0.78 -2.59,-2.28 -0.89,-1.37 -1.46,-2.22 -2.54,-3.45l-4.24 3.34 4.53 5.7 -0.88 0.79 -0.57 0.6 -0.65 0.23 -1.92 1.14 -0.59 1.04c0.66,2.14 0.59,1.91 0.31,3.88l1.58 1.52 5.98 -4.52 0.88 1.6 1.09 1.03 0.69 1.13 0.47 1.2 1.63 0.9 3.25 -2.53c0.3,-1.35 0.31,-0.85 -0.51,-2.13 -0.13,-0.2 -0.91,-1.02 -1.21,-1.41l-0.43 -0.53 -0.69 -0.94 -1.3 -1.53 6.35 -4.76 -3.52 -4.15 -1.52 0.75z"/>
   <path class="fil4" d="M4.82 227.34c0.8,-0.96 1.82,-2.19 3.45,-4.38 -0.08,-0.37 -0.19,-0.8 -0.31,-1.15l-3.44 -0.01c-0.31,0 -0.97,-0.02 -1.07,-0.02 -0.13,0.69 -0.26,1.39 -0.38,2.09 0.33,0.07 0.72,0.14 1.06,0.21l0.35 -1c0.04,-0.11 0.1,-0.2 0.21,-0.24 0.13,-0.04 0.26,-0.05 0.98,-0.05 0.2,0 0.4,0 0.61,0l0.02 0.04c-1.05,1.43 -1.99,2.73 -3.48,4.72 0.09,0.25 0.2,0.56 0.32,0.81 0.21,0 1.02,0 1.58,0 1.82,0 2.98,0.01 3.19,0.01 0.17,-0.69 0.33,-1.4 0.49,-2.09 -0.32,-0.07 -0.72,-0.15 -1.08,-0.21l-0.31 0.89c-0.05,0.14 -0.14,0.25 -0.31,0.3 -0.33,0.08 -1.07,0.12 -1.85,0.12l-0.02 -0.04z"/>
   <path id="_1_33" class="fil4" d="M11.76 228.02c0.15,0.19 0.28,0.35 0.38,0.44 0.81,0 1.53,-0.14 1.69,-0.2 0.01,-0.26 0,-0.57 0,-0.83l-0.54 0.02c-0.05,0.01 -0.05,-0.01 -0.05,-0.07 0.01,-0.43 0.02,-1.4 0.02,-2.06 0,-0.86 -0.77,-1.52 -1.55,-1.52 -0.97,0 -1.72,0.4 -2.45,1 0.16,0.24 0.34,0.51 0.53,0.72 0.4,-0.27 0.94,-0.57 1.27,-0.57 0.46,0 0.65,0.3 0.62,0.8 -0.1,0 -0.27,0 -0.49,0 -1.61,0 -2.27,0.97 -2.27,1.53 0,0.65 0.78,1.18 1.3,1.18 0.38,0 0.87,-0.14 1.48,-0.44l0.05 0zm-1.22 -0.91c0,-0.32 0.28,-0.61 0.95,-0.61 0.07,0 0.15,0 0.21,0.01 0,0.26 0,0.45 0,0.7 0,0.01 0,0.04 -0.02,0.06 -0.15,0.09 -0.41,0.22 -0.68,0.22 -0.2,0 -0.47,-0.15 -0.47,-0.38z"/>
   <path id="_2_34" class="fil4" d="M14.28 226.43c0,1.26 0.96,2.03 2.19,2.03 0.41,0 1.21,-0.14 1.87,-0.5 -0.04,-0.24 -0.12,-0.55 -0.19,-0.81 -0.3,0.12 -0.77,0.27 -1.16,0.27 -0.21,0 -0.52,-0.04 -0.69,-0.24 -0.18,-0.21 -0.31,-0.49 -0.31,-0.97 0,-0.46 0.05,-0.76 0.21,-1.03 0.14,-0.24 0.33,-0.31 0.56,-0.31 0.4,0 0.92,0.25 1.05,0.3 0.2,-0.11 0.52,-0.82 0.52,-1.12 -0.24,-0.15 -0.76,-0.25 -1.12,-0.25 -1.79,0 -2.92,1.2 -2.92,2.63zm2.49 -4.04c-0.36,-0.33 -0.72,-0.67 -1.04,-0.97 -0.17,0.12 -0.35,0.27 -0.52,0.43 0.4,0.45 0.85,0.97 1.22,1.42 0.2,0.01 0.46,0.01 0.65,0.01 0.36,-0.41 0.88,-1.03 1.23,-1.43 -0.13,-0.15 -0.31,-0.32 -0.48,-0.44 -0.32,0.29 -0.7,0.65 -1.07,0.98z"/>
   <path id="_3_35" class="fil4" d="M21.53 228.02c0.15,0.19 0.28,0.35 0.38,0.44 0.81,0 1.53,-0.14 1.69,-0.2 0.01,-0.26 0,-0.57 0,-0.83l-0.54 0.02c-0.05,0.01 -0.05,-0.01 -0.05,-0.07 0.01,-0.43 0.02,-1.4 0.02,-2.06 0,-0.86 -0.77,-1.52 -1.55,-1.52 -0.97,0 -1.72,0.4 -2.45,1 0.16,0.24 0.34,0.51 0.53,0.72 0.4,-0.27 0.94,-0.57 1.27,-0.57 0.46,0 0.65,0.3 0.62,0.8 -0.1,0 -0.27,0 -0.49,0 -1.61,0 -2.27,0.97 -2.27,1.53 0,0.65 0.78,1.18 1.3,1.18 0.38,0 0.87,-0.14 1.48,-0.44l0.05 0zm-1.22 -0.91c0,-0.32 0.28,-0.61 0.95,-0.61 0.07,0 0.15,0 0.21,0.01 0,0.26 0,0.45 0,0.7 0,0.01 0,0.04 -0.02,0.06 -0.15,0.09 -0.41,0.22 -0.68,0.22 -0.2,0 -0.47,-0.15 -0.47,-0.38zm1.84 -5.76c-0.52,0.5 -1.08,1.05 -1.59,1.53 0.16,0.19 0.31,0.36 0.45,0.53 0.57,-0.39 1.19,-0.85 1.81,-1.29 -0.2,-0.25 -0.43,-0.53 -0.68,-0.76z"/>
   <path id="_4_36" class="fil4" d="M25.71 228.46c0.75,0 1.49,-0.09 2.19,-0.36 -0.03,-0.26 -0.07,-0.58 -0.12,-0.85 -0.31,0.08 -0.7,0.15 -1.1,0.15 -0.22,0 -0.46,-0.17 -0.46,-0.46 0,-0.45 0,-0.82 0.01,-1.23 0,-0.56 0,-0.76 0,-0.84 0.46,0 1.09,0.01 1.52,0.01 0.03,-0.3 0.04,-0.66 0.04,-0.95 -0.48,0 -1.04,0.01 -1.56,0.01 0.01,-0.27 0.02,-1.19 0.03,-1.42 0,-0.03 -0.01,-0.04 -0.03,-0.04 -0.03,0 -0.99,0.29 -1.51,0.55 -0.02,0.24 -0.05,0.57 -0.07,0.84 0,0.05 -0.04,0.08 -0.07,0.08 -0.2,0.01 -0.46,0.04 -0.66,0.05 -0.02,0.28 -0.03,0.58 -0.03,0.86 0.24,0 0.54,0 0.71,0 0,0.09 -0.01,1.11 -0.01,1.32 0,0.12 -0.01,0.61 -0.01,1.17 0,0.28 0.03,0.52 0.35,0.8 0.25,0.23 0.52,0.3 0.78,0.3z"/>
   <path id="_5_37" class="fil4" d="M28.25 226.37c0,1.44 1.03,2.09 2.37,2.09 0.49,0 1.37,-0.2 1.96,-0.48 -0.04,-0.25 -0.11,-0.58 -0.19,-0.84 -0.32,0.12 -0.98,0.28 -1.43,0.28 -0.25,0 -0.52,-0.02 -0.75,-0.24 -0.13,-0.12 -0.25,-0.32 -0.27,-0.66 0.9,0 1.93,0 2.2,-0.03 0.08,-0.01 0.54,-0.44 0.55,-0.59 0,-0.66 -0.19,-1.19 -0.52,-1.58 -0.27,-0.3 -0.75,-0.54 -1.37,-0.54 -1.52,0 -2.55,1.13 -2.55,2.57zm2.35 -1.72c0.22,0 0.37,0.12 0.45,0.3 0.08,0.15 0.12,0.42 0.12,0.64 0,0.07 -0.03,0.11 -0.09,0.11 -0.29,0.01 -0.79,0.02 -1.14,0.02 -0.01,-0.4 0.06,-0.6 0.18,-0.8 0.14,-0.22 0.31,-0.27 0.48,-0.27z"/>
   <path id="_6_38" class="fil4" d="M33.75 222.44c0,1.51 -0.01,3.46 -0.01,5.03 0,0.01 -0.01,0.04 -0.03,0.04l-0.5 0.03c-0.01,0.26 -0.02,0.57 -0.02,0.83 0.41,0 0.89,-0.01 1.3,-0.01 0.41,0 0.9,0 1.23,0 0.01,-0.26 0.01,-0.56 0.01,-0.82l-0.36 -0.03c0,-0.33 0.01,-0.82 0.01,-1.14 0.14,-0.01 0.26,-0.01 0.39,-0.01 0.16,0 0.34,0.38 0.5,0.84 0.17,0.52 0.3,0.94 0.43,1.19 0.14,-0.01 1.64,-0.02 2.01,-0.02 0.02,-0.26 0.02,-0.57 0.02,-0.84l-0.52 -0.02c-0.05,0 -0.11,-0.03 -0.15,-0.09 -0.07,-0.13 -0.18,-0.39 -0.31,-0.71 -0.25,-0.6 -0.52,-0.81 -0.73,-0.96l0 -0.06c0.28,-0.22 0.62,-0.5 1.11,-0.91l0.37 -0.03c0.01,-0.27 0.01,-0.57 0.01,-0.84 -0.27,0 -0.6,0 -0.87,0.01 -0.42,0 -0.97,0.01 -1.42,0.01 -0.01,0.26 -0.01,0.57 -0.01,0.84l0.37 0.02c0.02,0 0.04,0.01 0.02,0.04 -0.26,0.31 -0.53,0.55 -0.71,0.71 -0.17,0.02 -0.35,0.02 -0.53,0.03 0.01,-1.57 0.02,-3.06 0.02,-4.23 0,-0.03 -0.01,-0.04 -0.02,-0.04 -0.1,0 -1.72,0.21 -2.28,0.28 0,0.26 -0.01,0.56 -0.01,0.84l0.65 0.02z"/>
   <path id="_7_39" class="fil4" d="M43.36 224.38c-0.04,-0.19 -0.07,-0.37 -0.11,-0.57 0,-0.01 0,-0.02 -0.02,-0.02 -0.05,0 -1.58,0.26 -2.05,0.32 -0.01,0.26 -0.02,0.56 -0.02,0.83l0.64 0.01 -0.01 4.89c0,0.03 -0.01,0.05 -0.04,0.05l-0.49 0.04c-0.01,0.27 -0.01,0.57 -0.01,0.83 0.4,-0.01 0.93,-0.01 1.33,-0.01 0.54,-0.01 1.14,-0.01 1.63,-0.01 0.01,-0.26 0.01,-0.56 0.01,-0.83l-0.82 -0.03c0,-0.52 0,-1.04 -0.01,-1.55l0.07 -0.02c0.22,0.09 0.51,0.14 0.89,0.14 0.4,0 0.88,-0.17 1.08,-0.32 0.39,-0.3 0.64,-0.68 0.77,-0.98 0.19,-0.42 0.31,-0.9 0.31,-1.35 0.01,-1.05 -0.7,-2 -1.54,-2 -0.42,0 -0.54,0.04 -1.56,0.59l-0.06 -0.01zm1.43 1.8c0,0.54 -0.09,0.9 -0.23,1.11 -0.13,0.19 -0.33,0.26 -0.52,0.26 -0.21,0 -0.62,-0.15 -0.62,-0.35 0,-0.57 0.01,-1.38 0.02,-1.94 0.29,-0.18 0.59,-0.28 0.79,-0.28 0.19,0 0.31,0.14 0.39,0.26 0.1,0.15 0.16,0.48 0.16,0.94z"/>
   <path id="_8_40" class="fil4" d="M47.57 222.45c0,1.5 0,3.47 0,5.01 0,0.03 -0.01,0.05 -0.03,0.05l-0.55 0.03c0,0.26 -0.01,0.57 -0.01,0.83 0.42,0 0.96,-0.01 1.39,-0.01 0.48,0 1,0 1.41,0 0,-0.26 0.01,-0.56 0.01,-0.83l-0.59 -0.02c0.01,-1.88 0.03,-4.5 0.04,-6.18 0,-0.03 -0.01,-0.04 -0.03,-0.04 -0.1,0 -1.75,0.21 -2.31,0.27 -0.01,0.26 -0.02,0.57 -0.02,0.84l0.69 0.04z"/>
   <path id="_9_41" class="fil4" d="M50.25 226.37c0,1.44 1.03,2.09 2.37,2.09 0.49,0 1.37,-0.2 1.96,-0.48 -0.04,-0.25 -0.11,-0.58 -0.19,-0.84 -0.32,0.12 -0.98,0.28 -1.43,0.28 -0.25,0 -0.52,-0.02 -0.75,-0.24 -0.13,-0.12 -0.25,-0.32 -0.27,-0.66 0.9,0 1.93,0 2.2,-0.03 0.08,-0.01 0.54,-0.44 0.55,-0.59 0,-0.66 -0.19,-1.19 -0.52,-1.58 -0.27,-0.3 -0.75,-0.54 -1.37,-0.54 -1.52,0 -2.55,1.13 -2.55,2.57zm2.35 -1.72c0.22,0 0.37,0.12 0.45,0.3 0.08,0.15 0.12,0.42 0.12,0.64 0,0.07 -0.03,0.11 -0.09,0.11 -0.29,0.01 -0.79,0.02 -1.14,0.02 -0.01,-0.4 0.06,-0.6 0.18,-0.8 0.14,-0.22 0.31,-0.27 0.48,-0.27z"/>
   <path id="_10_42" class="fil4" d="M56.15 226.76c-0.3,0.04 -0.61,0.1 -0.89,0.16 0.05,0.46 0.1,0.92 0.16,1.39 0.33,0.1 0.86,0.16 1.33,0.16 0.64,0 1.18,-0.1 1.51,-0.25 0.55,-0.27 0.89,-0.75 0.89,-1.31 0,-0.81 -0.5,-1.1 -1.22,-1.3 -0.78,-0.21 -0.95,-0.26 -0.95,-0.49 0,-0.19 0.09,-0.29 0.18,-0.35 0.09,-0.06 0.26,-0.08 0.38,-0.08 0.12,0 0.28,0.03 0.39,0.11 0.04,0.02 0.06,0.07 0.07,0.11l0.15 0.54c0.31,-0.04 0.64,-0.09 0.91,-0.14 -0.04,-0.45 -0.09,-0.91 -0.14,-1.35 -0.17,-0.06 -0.66,-0.13 -1.21,-0.13 -0.66,0 -1.12,0.13 -1.45,0.29 -0.42,0.2 -0.87,0.66 -0.87,1.26 0,0.64 0.44,1.08 1.35,1.34 0.69,0.18 0.81,0.25 0.81,0.51 0,0.17 -0.1,0.27 -0.22,0.33 -0.12,0.05 -0.25,0.05 -0.39,0.05 -0.18,0 -0.38,-0.05 -0.56,-0.15 -0.06,-0.04 -0.07,-0.08 -0.08,-0.11l-0.16 -0.58z"/>
   <path id="_11_43" class="fil4" d="M63.08 227.96c0.18,0.24 0.32,0.39 0.48,0.51 0.66,0 1.55,-0.14 1.65,-0.19 0.01,-0.27 0.01,-0.58 0.01,-0.84l-0.57 0.02c-0.03,0 -0.04,-0.02 -0.04,-0.06 0,-1.16 0.02,-2.38 0.03,-3.45 0,-0.01 -0.01,-0.04 -0.02,-0.04 -0.15,0 -1.74,0.03 -2.12,0.04 0,0.26 -0.01,0.58 -0.01,0.86l0.5 0.02c0,0.62 0.01,1.62 0,2.31 -0.19,0.14 -0.44,0.21 -0.61,0.21 -0.14,0 -0.28,-0.01 -0.4,-0.2 -0.13,-0.22 -0.12,-0.58 -0.12,-0.87 0,-0.74 0.02,-1.63 0.03,-2.34 0,-0.02 -0.01,-0.04 -0.03,-0.04 -0.14,0.01 -1.63,0.05 -2.05,0.07 0,0.26 -0.01,0.56 -0.01,0.83l0.44 0.02c0,0.66 -0.01,1.46 -0.01,2.22 0,0.62 0.76,1.43 1.37,1.43 0.4,0 0.61,-0.03 1.45,-0.51l0.04 0z"/>
   <path class="fil0" d="M41.39 271.32l-1.97 4.54c-1.24,0.8 -1.8,-0.07 -3.28,-1.06 -1.36,-0.91 -2.22,-1.47 -3.69,-2.17l-2.57 4.74 6.41 3.45 -0.5 1.08 -0.29 0.78 -0.5 0.46 -1.32 1.81 -0.13 1.18c1.45,1.71 1.3,1.52 1.82,3.44l2.05 0.77 3.71 -6.52 1.44 1.12 1.41 0.52 1.08 0.77 0.91 0.92 1.85 0.18 1.98 -3.61c-0.26,-1.36 -0.05,-0.91 -1.31,-1.76 -0.2,-0.13 -1.24,-0.57 -1.67,-0.82l-0.6 -0.32 -1.01 -0.59 -1.8 -0.89 3.95 -6.89 -4.87 -2.42 -1.1 1.29z"/>
   <path class="fil4" d="M54.16 276.95c0.8,-0.96 1.82,-2.19 3.45,-4.38 -0.08,-0.37 -0.19,-0.8 -0.31,-1.15l-3.44 -0.01c-0.31,0 -0.97,-0.02 -1.07,-0.02 -0.13,0.69 -0.26,1.39 -0.38,2.09 0.33,0.07 0.72,0.14 1.06,0.21l0.35 -1c0.04,-0.11 0.1,-0.2 0.21,-0.24 0.13,-0.04 0.26,-0.05 0.98,-0.05 0.2,0 0.4,0 0.61,0l0.02 0.04c-1.05,1.43 -1.99,2.73 -3.48,4.72 0.09,0.25 0.2,0.56 0.32,0.81 0.21,0 1.02,0 1.58,0 1.82,0 2.98,0.01 3.19,0.01 0.17,-0.69 0.33,-1.4 0.49,-2.09 -0.32,-0.07 -0.72,-0.15 -1.08,-0.21l-0.31 0.89c-0.05,0.14 -0.14,0.25 -0.31,0.3 -0.33,0.08 -1.07,0.12 -1.85,0.12l-0.02 -0.04z"/>
   <path id="_1_44" class="fil4" d="M61.09 277.63c0.15,0.19 0.28,0.35 0.38,0.44 0.81,0 1.53,-0.14 1.69,-0.2 0.01,-0.26 0,-0.57 0,-0.83l-0.54 0.02c-0.05,0.01 -0.05,-0.01 -0.05,-0.07 0.01,-0.43 0.02,-1.4 0.02,-2.06 0,-0.86 -0.77,-1.52 -1.55,-1.52 -0.97,0 -1.72,0.4 -2.45,1 0.16,0.24 0.34,0.51 0.53,0.72 0.4,-0.27 0.94,-0.57 1.27,-0.57 0.46,0 0.65,0.3 0.62,0.8 -0.1,0 -0.27,0 -0.49,0 -1.61,0 -2.27,0.97 -2.27,1.53 0,0.65 0.78,1.18 1.3,1.18 0.38,0 0.87,-0.14 1.48,-0.44l0.05 0zm-1.22 -0.91c0,-0.32 0.28,-0.61 0.95,-0.61 0.07,0 0.15,0 0.21,0.01 0,0.26 0,0.45 0,0.7 0,0.01 0,0.04 -0.02,0.06 -0.15,0.09 -0.41,0.22 -0.68,0.22 -0.2,0 -0.47,-0.15 -0.47,-0.38z"/>
   <path id="_2_45" class="fil4" d="M63.62 276.04c0,1.26 0.96,2.03 2.19,2.03 0.41,0 1.21,-0.14 1.87,-0.5 -0.04,-0.24 -0.12,-0.55 -0.19,-0.81 -0.3,0.12 -0.77,0.27 -1.16,0.27 -0.21,0 -0.52,-0.04 -0.69,-0.24 -0.18,-0.21 -0.31,-0.49 -0.31,-0.97 0,-0.46 0.05,-0.76 0.21,-1.03 0.14,-0.24 0.33,-0.31 0.56,-0.31 0.4,0 0.92,0.25 1.05,0.3 0.2,-0.11 0.52,-0.82 0.52,-1.12 -0.24,-0.15 -0.76,-0.25 -1.12,-0.25 -1.79,0 -2.92,1.2 -2.92,2.63zm2.49 -4.04c-0.36,-0.33 -0.72,-0.67 -1.04,-0.97 -0.17,0.12 -0.35,0.27 -0.52,0.43 0.4,0.45 0.85,0.97 1.22,1.42 0.2,0.01 0.46,0.01 0.65,0.01 0.36,-0.41 0.88,-1.03 1.23,-1.43 -0.13,-0.15 -0.31,-0.32 -0.48,-0.44 -0.32,0.29 -0.7,0.65 -1.07,0.98z"/>
   <path id="_3_46" class="fil4" d="M70.87 277.63c0.15,0.19 0.28,0.35 0.38,0.44 0.81,0 1.53,-0.14 1.69,-0.2 0.01,-0.26 0,-0.57 0,-0.83l-0.54 0.02c-0.05,0.01 -0.05,-0.01 -0.05,-0.07 0.01,-0.43 0.02,-1.4 0.02,-2.06 0,-0.86 -0.77,-1.52 -1.55,-1.52 -0.97,0 -1.72,0.4 -2.45,1 0.16,0.24 0.34,0.51 0.53,0.72 0.4,-0.27 0.94,-0.57 1.27,-0.57 0.46,0 0.65,0.3 0.62,0.8 -0.1,0 -0.27,0 -0.49,0 -1.61,0 -2.27,0.97 -2.27,1.53 0,0.65 0.78,1.18 1.3,1.18 0.38,0 0.87,-0.14 1.48,-0.44l0.05 0zm-1.22 -0.91c0,-0.32 0.28,-0.61 0.95,-0.61 0.07,0 0.15,0 0.21,0.01 0,0.26 0,0.45 0,0.7 0,0.01 0,0.04 -0.02,0.06 -0.15,0.09 -0.41,0.22 -0.68,0.22 -0.2,0 -0.47,-0.15 -0.47,-0.38zm1.84 -5.76c-0.52,0.5 -1.08,1.05 -1.59,1.53 0.16,0.19 0.31,0.36 0.45,0.53 0.57,-0.39 1.19,-0.85 1.81,-1.29 -0.2,-0.25 -0.43,-0.53 -0.68,-0.76z"/>
   <path id="_4_47" class="fil4" d="M75.05 278.08c0.75,0 1.49,-0.09 2.19,-0.36 -0.03,-0.26 -0.07,-0.58 -0.12,-0.85 -0.31,0.08 -0.7,0.15 -1.1,0.15 -0.22,0 -0.46,-0.17 -0.46,-0.46 0,-0.45 0,-0.82 0.01,-1.23 0,-0.56 0,-0.76 0,-0.84 0.46,0 1.09,0.01 1.52,0.01 0.03,-0.3 0.04,-0.66 0.04,-0.95 -0.48,0 -1.04,0.01 -1.56,0.01 0.01,-0.27 0.02,-1.19 0.03,-1.42 0,-0.03 -0.01,-0.04 -0.03,-0.04 -0.03,0 -0.99,0.29 -1.51,0.55 -0.02,0.24 -0.05,0.57 -0.07,0.84 0,0.05 -0.04,0.08 -0.07,0.08 -0.2,0.01 -0.46,0.04 -0.66,0.05 -0.02,0.28 -0.03,0.58 -0.03,0.86 0.24,0 0.54,0 0.71,0 0,0.09 -0.01,1.11 -0.01,1.32 0,0.12 -0.01,0.61 -0.01,1.17 0,0.28 0.03,0.52 0.35,0.8 0.25,0.23 0.52,0.3 0.78,0.3z"/>
   <path id="_5_48" class="fil4" d="M77.58 275.98c0,1.44 1.03,2.09 2.37,2.09 0.49,0 1.37,-0.2 1.96,-0.48 -0.04,-0.25 -0.11,-0.58 -0.19,-0.84 -0.32,0.12 -0.98,0.28 -1.43,0.28 -0.25,0 -0.52,-0.02 -0.75,-0.24 -0.13,-0.12 -0.25,-0.32 -0.27,-0.66 0.9,0 1.93,0 2.2,-0.03 0.08,-0.01 0.54,-0.44 0.55,-0.59 0,-0.66 -0.19,-1.19 -0.52,-1.58 -0.27,-0.3 -0.75,-0.54 -1.37,-0.54 -1.52,0 -2.55,1.13 -2.55,2.57zm2.35 -1.72c0.22,0 0.37,0.12 0.45,0.3 0.08,0.15 0.12,0.42 0.12,0.64 0,0.07 -0.03,0.11 -0.09,0.11 -0.29,0.01 -0.79,0.02 -1.14,0.02 -0.01,-0.4 0.06,-0.6 0.18,-0.8 0.14,-0.22 0.31,-0.27 0.48,-0.27z"/>
   <path id="_6_49" class="fil4" d="M83.08 272.05c0,1.51 -0.01,3.46 -0.01,5.03 0,0.01 -0.01,0.04 -0.03,0.04l-0.5 0.03c-0.01,0.26 -0.02,0.57 -0.02,0.83 0.41,0 0.89,-0.01 1.3,-0.01 0.41,0 0.9,0 1.23,0 0.01,-0.26 0.01,-0.56 0.01,-0.82l-0.36 -0.03c0,-0.33 0.01,-0.82 0.01,-1.14 0.14,-0.01 0.26,-0.01 0.39,-0.01 0.16,0 0.34,0.38 0.5,0.84 0.17,0.52 0.3,0.94 0.43,1.19 0.14,-0.01 1.64,-0.02 2.01,-0.02 0.02,-0.26 0.02,-0.57 0.02,-0.84l-0.52 -0.02c-0.05,0 -0.11,-0.03 -0.15,-0.09 -0.07,-0.13 -0.18,-0.39 -0.31,-0.71 -0.25,-0.6 -0.52,-0.81 -0.73,-0.96l0 -0.06c0.28,-0.22 0.62,-0.5 1.11,-0.91l0.37 -0.03c0.01,-0.27 0.01,-0.57 0.01,-0.84 -0.27,0 -0.6,0 -0.87,0.01 -0.42,0 -0.97,0.01 -1.42,0.01 -0.01,0.26 -0.01,0.57 -0.01,0.84l0.37 0.02c0.02,0 0.04,0.01 0.02,0.04 -0.26,0.31 -0.53,0.55 -0.71,0.71 -0.17,0.02 -0.35,0.02 -0.53,0.03 0.01,-1.57 0.02,-3.06 0.02,-4.23 0,-0.03 -0.01,-0.04 -0.02,-0.04 -0.1,0 -1.72,0.21 -2.28,0.28 0,0.26 -0.01,0.56 -0.01,0.84l0.65 0.02z"/>
   <path id="_7_50" class="fil4" d="M54.24 283.07c-0.04,-0.19 -0.07,-0.37 -0.11,-0.57 0,-0.01 0,-0.02 -0.02,-0.02 -0.05,0 -1.58,0.26 -2.05,0.32 -0.01,0.26 -0.02,0.56 -0.02,0.83l0.64 0.01 -0.01 4.89c0,0.03 -0.01,0.05 -0.04,0.05l-0.49 0.04c-0.01,0.27 -0.01,0.57 -0.01,0.83 0.4,-0.01 0.93,-0.01 1.33,-0.01 0.54,-0.01 1.14,-0.01 1.63,-0.01 0.01,-0.26 0.01,-0.56 0.01,-0.83l-0.82 -0.03c0,-0.52 0,-1.04 -0.01,-1.55l0.07 -0.02c0.22,0.09 0.51,0.14 0.89,0.14 0.4,0 0.88,-0.17 1.08,-0.32 0.39,-0.3 0.64,-0.68 0.77,-0.98 0.19,-0.42 0.31,-0.9 0.31,-1.35 0.01,-1.05 -0.7,-2 -1.54,-2 -0.42,0 -0.54,0.04 -1.56,0.59l-0.06 -0.01zm1.43 1.8c0,0.54 -0.09,0.9 -0.23,1.11 -0.13,0.19 -0.33,0.26 -0.52,0.26 -0.21,0 -0.62,-0.15 -0.62,-0.35 0,-0.57 0.01,-1.38 0.02,-1.94 0.29,-0.18 0.59,-0.28 0.79,-0.28 0.19,0 0.31,0.14 0.39,0.26 0.1,0.15 0.16,0.48 0.16,0.94z"/>
   <path id="_8_51" class="fil4" d="M58.44 281.14c0,1.5 0,3.47 0,5.01 0,0.03 -0.01,0.05 -0.03,0.05l-0.55 0.03c0,0.26 -0.01,0.57 -0.01,0.83 0.42,0 0.96,-0.01 1.39,-0.01 0.48,0 1,0 1.41,0 0,-0.26 0.01,-0.56 0.01,-0.83l-0.59 -0.02c0.01,-1.88 0.03,-4.5 0.04,-6.18 0,-0.03 -0.01,-0.04 -0.03,-0.04 -0.1,0 -1.75,0.21 -2.31,0.27 -0.01,0.26 -0.02,0.57 -0.02,0.84l0.69 0.04z"/>
   <path id="_9_52" class="fil4" d="M61.12 285.06c0,1.44 1.03,2.09 2.37,2.09 0.49,0 1.37,-0.2 1.96,-0.48 -0.04,-0.25 -0.11,-0.58 -0.19,-0.84 -0.32,0.12 -0.98,0.28 -1.43,0.28 -0.25,0 -0.52,-0.02 -0.75,-0.24 -0.13,-0.12 -0.25,-0.32 -0.27,-0.66 0.9,0 1.93,0 2.2,-0.03 0.08,-0.01 0.54,-0.44 0.55,-0.59 0,-0.66 -0.19,-1.19 -0.52,-1.58 -0.27,-0.3 -0.75,-0.54 -1.37,-0.54 -1.52,0 -2.55,1.13 -2.55,2.57zm2.35 -1.72c0.22,0 0.37,0.12 0.45,0.3 0.08,0.15 0.12,0.42 0.12,0.64 0,0.07 -0.03,0.11 -0.09,0.11 -0.29,0.01 -0.79,0.02 -1.14,0.02 -0.01,-0.4 0.06,-0.6 0.18,-0.8 0.14,-0.22 0.31,-0.27 0.48,-0.27z"/>
   <path id="_10_53" class="fil4" d="M67.03 285.45c-0.3,0.04 -0.61,0.1 -0.89,0.16 0.05,0.46 0.1,0.92 0.16,1.39 0.33,0.1 0.86,0.16 1.33,0.16 0.64,0 1.18,-0.1 1.51,-0.25 0.55,-0.27 0.89,-0.75 0.89,-1.31 0,-0.81 -0.5,-1.1 -1.22,-1.3 -0.78,-0.21 -0.95,-0.26 -0.95,-0.49 0,-0.19 0.09,-0.29 0.18,-0.35 0.09,-0.06 0.26,-0.08 0.38,-0.08 0.12,0 0.28,0.03 0.39,0.11 0.04,0.02 0.06,0.07 0.07,0.11l0.15 0.54c0.31,-0.04 0.64,-0.09 0.91,-0.14 -0.04,-0.45 -0.09,-0.91 -0.14,-1.35 -0.17,-0.06 -0.66,-0.13 -1.21,-0.13 -0.66,0 -1.12,0.13 -1.45,0.29 -0.42,0.2 -0.87,0.66 -0.87,1.26 0,0.64 0.44,1.08 1.35,1.34 0.69,0.18 0.81,0.25 0.81,0.51 0,0.17 -0.1,0.27 -0.22,0.33 -0.12,0.05 -0.25,0.05 -0.39,0.05 -0.18,0 -0.38,-0.05 -0.56,-0.15 -0.06,-0.04 -0.07,-0.08 -0.08,-0.11l-0.16 -0.58z"/>
   <path id="_11_54" class="fil4" d="M73.95 286.65c0.18,0.24 0.32,0.39 0.48,0.51 0.66,0 1.55,-0.14 1.65,-0.19 0.01,-0.27 0.01,-0.58 0.01,-0.84l-0.57 0.02c-0.03,0 -0.04,-0.02 -0.04,-0.06 0,-1.16 0.02,-2.38 0.03,-3.45 0,-0.01 -0.01,-0.04 -0.02,-0.04 -0.15,0 -1.74,0.03 -2.12,0.04 0,0.26 -0.01,0.58 -0.01,0.86l0.5 0.02c0,0.62 0.01,1.62 0,2.31 -0.19,0.14 -0.44,0.21 -0.61,0.21 -0.14,0 -0.28,-0.01 -0.4,-0.2 -0.13,-0.22 -0.12,-0.58 -0.12,-0.87 0,-0.74 0.02,-1.63 0.03,-2.34 0,-0.02 -0.01,-0.04 -0.03,-0.04 -0.14,0.01 -1.63,0.05 -2.05,0.07 0,0.26 -0.01,0.56 -0.01,0.83l0.44 0.02c0,0.66 -0.01,1.46 -0.01,2.22 0,0.62 0.76,1.43 1.37,1.43 0.4,0 0.61,-0.03 1.45,-0.51l0.04 0z"/>
   <path class="fil0" d="M31.27 326.21l-3.6 3.39c-1.46,0.25 -1.62,-0.78 -2.59,-2.28 -0.89,-1.37 -1.46,-2.22 -2.54,-3.45l-4.24 3.34 4.53 5.7 -0.88 0.79 -0.57 0.6 -0.64 0.23 -1.92 1.14 -0.59 1.04c0.66,2.14 0.59,1.91 0.31,3.88l1.58 1.52 5.98 -4.52 0.88 1.6 1.09 1.03 0.69 1.13 0.47 1.2 1.63 0.9 3.25 -2.53c0.3,-1.35 0.31,-0.85 -0.51,-2.13 -0.13,-0.2 -0.91,-1.02 -1.21,-1.41l-0.43 -0.53 -0.69 -0.94 -1.3 -1.53 6.35 -4.76 -3.51 -4.15 -1.52 0.75z"/>
   <path class="fil4" d="M51.62 334.97c0.8,-0.96 1.82,-2.19 3.45,-4.38 -0.08,-0.37 -0.19,-0.8 -0.31,-1.15l-3.44 -0.01c-0.31,0 -0.97,-0.02 -1.07,-0.02 -0.13,0.69 -0.26,1.39 -0.38,2.09 0.33,0.07 0.72,0.14 1.06,0.21l0.35 -1c0.04,-0.11 0.1,-0.2 0.21,-0.24 0.13,-0.04 0.26,-0.05 0.98,-0.05 0.2,0 0.4,0 0.61,0l0.02 0.04c-1.05,1.43 -1.99,2.73 -3.48,4.72 0.09,0.25 0.2,0.56 0.32,0.81 0.21,0 1.02,0 1.58,0 1.82,0 2.98,0.01 3.19,0.01 0.17,-0.69 0.33,-1.4 0.49,-2.09 -0.32,-0.07 -0.72,-0.15 -1.08,-0.21l-0.31 0.89c-0.05,0.14 -0.14,0.25 -0.31,0.3 -0.33,0.08 -1.07,0.12 -1.85,0.12l-0.02 -0.04z"/>
   <path id="_1_55" class="fil4" d="M58.56 335.64c0.15,0.19 0.28,0.35 0.38,0.44 0.81,0 1.53,-0.14 1.69,-0.2 0.01,-0.26 0,-0.57 0,-0.83l-0.54 0.02c-0.05,0.01 -0.05,-0.01 -0.05,-0.07 0.01,-0.43 0.02,-1.4 0.02,-2.06 0,-0.86 -0.77,-1.52 -1.55,-1.52 -0.97,0 -1.72,0.4 -2.45,1 0.16,0.24 0.34,0.51 0.53,0.72 0.4,-0.27 0.94,-0.57 1.27,-0.57 0.46,0 0.65,0.3 0.62,0.8 -0.1,0 -0.27,0 -0.49,0 -1.61,0 -2.27,0.97 -2.27,1.53 0,0.65 0.78,1.18 1.3,1.18 0.38,0 0.87,-0.14 1.48,-0.44l0.05 0zm-1.22 -0.91c0,-0.32 0.28,-0.61 0.95,-0.61 0.07,0 0.15,0 0.21,0.01 0,0.26 0,0.45 0,0.7 0,0.01 0,0.04 -0.02,0.06 -0.15,0.09 -0.41,0.22 -0.68,0.22 -0.2,0 -0.47,-0.15 -0.47,-0.38z"/>
   <path id="_2_56" class="fil4" d="M61.09 334.06c0,1.26 0.96,2.03 2.19,2.03 0.41,0 1.21,-0.14 1.87,-0.5 -0.04,-0.24 -0.12,-0.55 -0.19,-0.81 -0.3,0.12 -0.77,0.27 -1.16,0.27 -0.21,0 -0.52,-0.04 -0.69,-0.24 -0.18,-0.21 -0.31,-0.49 -0.31,-0.97 0,-0.46 0.05,-0.76 0.21,-1.03 0.14,-0.24 0.33,-0.31 0.56,-0.31 0.4,0 0.92,0.25 1.05,0.3 0.2,-0.11 0.52,-0.82 0.52,-1.12 -0.24,-0.15 -0.76,-0.25 -1.12,-0.25 -1.79,0 -2.92,1.2 -2.92,2.63zm2.49 -4.04c-0.36,-0.33 -0.72,-0.67 -1.04,-0.97 -0.17,0.12 -0.35,0.27 -0.52,0.43 0.4,0.45 0.85,0.97 1.22,1.42 0.2,0.01 0.46,0.01 0.65,0.01 0.36,-0.41 0.88,-1.03 1.23,-1.43 -0.13,-0.15 -0.31,-0.32 -0.48,-0.44 -0.32,0.29 -0.7,0.65 -1.07,0.98z"/>
   <path id="_3_57" class="fil4" d="M68.34 335.64c0.15,0.19 0.28,0.35 0.38,0.44 0.81,0 1.53,-0.14 1.69,-0.2 0.01,-0.26 0,-0.57 0,-0.83l-0.54 0.02c-0.05,0.01 -0.05,-0.01 -0.05,-0.07 0.01,-0.43 0.02,-1.4 0.02,-2.06 0,-0.86 -0.77,-1.52 -1.55,-1.52 -0.97,0 -1.72,0.4 -2.45,1 0.16,0.24 0.34,0.51 0.53,0.72 0.4,-0.27 0.94,-0.57 1.27,-0.57 0.46,0 0.65,0.3 0.62,0.8 -0.1,0 -0.27,0 -0.49,0 -1.61,0 -2.27,0.97 -2.27,1.53 0,0.65 0.78,1.18 1.3,1.18 0.38,0 0.87,-0.14 1.48,-0.44l0.05 0zm-1.22 -0.91c0,-0.32 0.28,-0.61 0.95,-0.61 0.07,0 0.15,0 0.21,0.01 0,0.26 0,0.45 0,0.7 0,0.01 0,0.04 -0.02,0.06 -0.15,0.09 -0.41,0.22 -0.68,0.22 -0.2,0 -0.47,-0.15 -0.47,-0.38zm1.84 -5.76c-0.52,0.5 -1.08,1.05 -1.59,1.53 0.16,0.19 0.31,0.36 0.45,0.53 0.57,-0.39 1.19,-0.85 1.81,-1.29 -0.2,-0.25 -0.43,-0.53 -0.68,-0.76z"/>
   <path id="_4_58" class="fil4" d="M72.51 336.09c0.75,0 1.49,-0.09 2.19,-0.36 -0.03,-0.26 -0.07,-0.58 -0.12,-0.85 -0.31,0.08 -0.7,0.15 -1.1,0.15 -0.22,0 -0.46,-0.17 -0.46,-0.46 0,-0.45 0,-0.82 0.01,-1.23 0,-0.56 0,-0.76 0,-0.84 0.46,0 1.09,0.01 1.52,0.01 0.03,-0.3 0.04,-0.66 0.04,-0.95 -0.48,0 -1.04,0.01 -1.56,0.01 0.01,-0.27 0.02,-1.19 0.03,-1.42 0,-0.03 -0.01,-0.04 -0.03,-0.04 -0.03,0 -0.99,0.29 -1.51,0.55 -0.02,0.24 -0.05,0.57 -0.07,0.84 0,0.05 -0.04,0.08 -0.07,0.08 -0.2,0.01 -0.46,0.04 -0.66,0.05 -0.02,0.28 -0.03,0.58 -0.03,0.86 0.24,0 0.54,0 0.71,0 0,0.09 -0.01,1.11 -0.01,1.32 0,0.12 -0.01,0.61 -0.01,1.17 0,0.28 0.03,0.52 0.35,0.8 0.25,0.23 0.52,0.3 0.78,0.3z"/>
   <path id="_5_59" class="fil4" d="M75.05 334c0,1.44 1.03,2.09 2.37,2.09 0.49,0 1.37,-0.2 1.96,-0.48 -0.04,-0.25 -0.11,-0.58 -0.19,-0.84 -0.32,0.12 -0.98,0.28 -1.43,0.28 -0.25,0 -0.52,-0.02 -0.75,-0.24 -0.13,-0.12 -0.25,-0.32 -0.27,-0.66 0.9,0 1.93,0 2.2,-0.03 0.08,-0.01 0.54,-0.44 0.55,-0.59 0,-0.66 -0.19,-1.19 -0.52,-1.58 -0.27,-0.3 -0.75,-0.54 -1.37,-0.54 -1.52,0 -2.55,1.13 -2.55,2.57zm2.35 -1.72c0.22,0 0.37,0.12 0.45,0.3 0.08,0.15 0.12,0.42 0.12,0.64 0,0.07 -0.03,0.11 -0.09,0.11 -0.29,0.01 -0.79,0.02 -1.14,0.02 -0.01,-0.4 0.06,-0.6 0.18,-0.8 0.14,-0.22 0.31,-0.27 0.48,-0.27z"/>
   <path id="_6_60" class="fil4" d="M80.55 330.06c0,1.51 -0.01,3.46 -0.01,5.03 0,0.01 -0.01,0.04 -0.03,0.04l-0.5 0.03c-0.01,0.26 -0.02,0.57 -0.02,0.83 0.41,0 0.89,-0.01 1.3,-0.01 0.41,0 0.9,0 1.23,0 0.01,-0.26 0.01,-0.56 0.01,-0.82l-0.36 -0.03c0,-0.33 0.01,-0.82 0.01,-1.14 0.14,-0.01 0.26,-0.01 0.39,-0.01 0.16,0 0.34,0.38 0.5,0.84 0.17,0.52 0.3,0.94 0.43,1.19 0.14,-0.01 1.64,-0.02 2.01,-0.02 0.02,-0.26 0.02,-0.57 0.02,-0.84l-0.52 -0.02c-0.05,0 -0.11,-0.03 -0.15,-0.09 -0.07,-0.13 -0.18,-0.39 -0.31,-0.71 -0.25,-0.6 -0.52,-0.81 -0.73,-0.96l0 -0.06c0.28,-0.22 0.62,-0.5 1.11,-0.91l0.37 -0.03c0.01,-0.27 0.01,-0.57 0.01,-0.84 -0.27,0 -0.6,0 -0.87,0.01 -0.42,0 -0.97,0.01 -1.42,0.01 -0.01,0.26 -0.01,0.57 -0.01,0.84l0.37 0.02c0.02,0 0.04,0.01 0.02,0.04 -0.26,0.31 -0.53,0.55 -0.71,0.71 -0.17,0.02 -0.35,0.02 -0.53,0.03 0.01,-1.57 0.02,-3.06 0.02,-4.23 0,-0.03 -0.01,-0.04 -0.02,-0.04 -0.1,0 -1.72,0.21 -2.28,0.28 0,0.26 -0.01,0.56 -0.01,0.84l0.65 0.02z"/>
   <path id="_7_61" class="fil4" d="M51.7 342.48c-0.04,-0.19 -0.07,-0.37 -0.11,-0.57 0,-0.01 0,-0.02 -0.02,-0.02 -0.05,0 -1.58,0.26 -2.05,0.32 -0.01,0.26 -0.02,0.56 -0.02,0.83l0.64 0.01 -0.01 4.89c0,0.03 -0.01,0.05 -0.04,0.05l-0.49 0.04c-0.01,0.27 -0.01,0.57 -0.01,0.83 0.4,-0.01 0.93,-0.01 1.33,-0.01 0.54,-0.01 1.14,-0.01 1.63,-0.01 0.01,-0.26 0.01,-0.56 0.01,-0.83l-0.82 -0.03c0,-0.52 0,-1.04 -0.01,-1.55l0.07 -0.02c0.22,0.09 0.51,0.14 0.89,0.14 0.4,0 0.88,-0.17 1.08,-0.32 0.39,-0.3 0.64,-0.68 0.77,-0.98 0.19,-0.42 0.31,-0.9 0.31,-1.35 0.01,-1.05 -0.7,-2 -1.54,-2 -0.42,0 -0.54,0.04 -1.56,0.59l-0.06 -0.01zm1.43 1.8c0,0.54 -0.09,0.9 -0.23,1.11 -0.13,0.19 -0.33,0.26 -0.52,0.26 -0.21,0 -0.62,-0.15 -0.62,-0.35 0,-0.57 0.01,-1.38 0.02,-1.94 0.29,-0.18 0.59,-0.28 0.79,-0.28 0.19,0 0.31,0.14 0.39,0.26 0.1,0.15 0.16,0.48 0.16,0.94z"/>
   <path id="_8_62" class="fil4" d="M55.91 340.55c0,1.5 0,3.47 0,5.01 0,0.03 -0.01,0.05 -0.03,0.05l-0.55 0.03c0,0.26 -0.01,0.57 -0.01,0.83 0.42,0 0.96,-0.01 1.39,-0.01 0.48,0 1,0 1.41,0 0,-0.26 0.01,-0.56 0.01,-0.83l-0.59 -0.02c0.01,-1.88 0.03,-4.5 0.04,-6.18 0,-0.03 -0.01,-0.04 -0.03,-0.04 -0.1,0 -1.75,0.21 -2.31,0.27 -0.01,0.26 -0.02,0.57 -0.02,0.84l0.69 0.04z"/>
   <path id="_9_63" class="fil4" d="M58.59 344.47c0,1.44 1.03,2.09 2.37,2.09 0.49,0 1.37,-0.2 1.96,-0.48 -0.04,-0.25 -0.11,-0.58 -0.19,-0.84 -0.32,0.12 -0.98,0.28 -1.43,0.28 -0.25,0 -0.52,-0.02 -0.75,-0.24 -0.13,-0.12 -0.25,-0.32 -0.27,-0.66 0.9,0 1.93,0 2.2,-0.03 0.08,-0.01 0.54,-0.44 0.55,-0.59 0,-0.66 -0.19,-1.19 -0.52,-1.58 -0.27,-0.3 -0.75,-0.54 -1.37,-0.54 -1.52,0 -2.55,1.13 -2.55,2.57zm2.35 -1.72c0.22,0 0.37,0.12 0.45,0.3 0.08,0.15 0.12,0.42 0.12,0.64 0,0.07 -0.03,0.11 -0.09,0.11 -0.29,0.01 -0.79,0.02 -1.14,0.02 -0.01,-0.4 0.06,-0.6 0.18,-0.8 0.14,-0.22 0.31,-0.27 0.48,-0.27z"/>
   <path id="_10_64" class="fil4" d="M64.49 344.85c-0.3,0.04 -0.61,0.1 -0.89,0.16 0.05,0.46 0.1,0.92 0.16,1.39 0.33,0.1 0.86,0.16 1.33,0.16 0.64,0 1.18,-0.1 1.51,-0.25 0.55,-0.27 0.89,-0.75 0.89,-1.31 0,-0.81 -0.5,-1.1 -1.22,-1.3 -0.78,-0.21 -0.95,-0.26 -0.95,-0.49 0,-0.19 0.09,-0.29 0.18,-0.35 0.09,-0.06 0.26,-0.08 0.38,-0.08 0.12,0 0.28,0.03 0.39,0.11 0.04,0.02 0.06,0.07 0.07,0.11l0.15 0.54c0.31,-0.04 0.64,-0.09 0.91,-0.14 -0.04,-0.45 -0.09,-0.91 -0.14,-1.35 -0.17,-0.06 -0.66,-0.13 -1.21,-0.13 -0.66,0 -1.12,0.13 -1.45,0.29 -0.42,0.2 -0.87,0.66 -0.87,1.26 0,0.64 0.44,1.08 1.35,1.34 0.69,0.18 0.81,0.25 0.81,0.51 0,0.17 -0.1,0.27 -0.22,0.33 -0.12,0.05 -0.25,0.05 -0.39,0.05 -0.18,0 -0.38,-0.05 -0.56,-0.15 -0.06,-0.04 -0.07,-0.08 -0.08,-0.11l-0.16 -0.58z"/>
   <path id="_11_65" class="fil4" d="M71.42 346.05c0.18,0.24 0.32,0.39 0.48,0.51 0.66,0 1.55,-0.14 1.65,-0.19 0.01,-0.27 0.01,-0.58 0.01,-0.84l-0.57 0.02c-0.03,0 -0.04,-0.02 -0.04,-0.06 0,-1.16 0.02,-2.38 0.03,-3.45 0,-0.01 -0.01,-0.04 -0.02,-0.04 -0.15,0 -1.74,0.03 -2.12,0.04 0,0.26 -0.01,0.58 -0.01,0.86l0.5 0.02c0,0.62 0.01,1.62 0,2.31 -0.19,0.14 -0.44,0.21 -0.61,0.21 -0.14,0 -0.28,-0.01 -0.4,-0.2 -0.13,-0.22 -0.12,-0.58 -0.12,-0.87 0,-0.74 0.02,-1.63 0.03,-2.34 0,-0.02 -0.01,-0.04 -0.03,-0.04 -0.14,0.01 -1.63,0.05 -2.05,0.07 0,0.26 -0.01,0.56 -0.01,0.83l0.44 0.02c0,0.66 -0.01,1.46 -0.01,2.22 0,0.62 0.76,1.43 1.37,1.43 0.4,0 0.61,-0.03 1.45,-0.51l0.04 0z"/>
   <path class="fil0" d="M31.01 382.01l-4.36 2.35c-1.48,-0.14 -1.37,-1.17 -1.92,-2.87 -0.5,-1.55 -0.83,-2.53 -1.56,-3.99l-4.96 2.13 2.9 6.68 -1.06 0.54 -0.71 0.43 -0.68 0.05 -2.15 0.6 -0.83 0.85c0.08,2.24 0.08,1.99 -0.7,3.83l1.13 1.87 6.95 -2.82 0.43 1.77 0.78 1.28 0.37 1.27 0.14 1.29 1.34 1.29 3.79 -1.61c0.64,-1.23 0.52,-0.74 0.06,-2.19 -0.07,-0.23 -0.62,-1.22 -0.8,-1.67l-0.27 -0.63 -0.43 -1.08 -0.86 -1.81 7.37 -2.96 -2.32 -4.92 -1.66 0.33z"/>
   <path class="fil4" d="M40.05 389.33c0.8,-0.96 1.82,-2.19 3.45,-4.38 -0.08,-0.37 -0.19,-0.8 -0.31,-1.15l-3.44 -0.01c-0.31,0 -0.97,-0.02 -1.07,-0.02 -0.13,0.69 -0.26,1.39 -0.38,2.09 0.33,0.07 0.72,0.14 1.06,0.21l0.35 -1c0.04,-0.11 0.1,-0.2 0.21,-0.24 0.13,-0.04 0.26,-0.05 0.98,-0.05 0.2,0 0.4,0 0.61,0l0.02 0.04c-1.05,1.43 -1.99,2.73 -3.48,4.72 0.09,0.25 0.2,0.56 0.32,0.81 0.21,0 1.02,0 1.58,0 1.82,0 2.98,0.01 3.19,0.01 0.17,-0.69 0.33,-1.4 0.49,-2.09 -0.32,-0.07 -0.72,-0.15 -1.08,-0.21l-0.31 0.89c-0.05,0.14 -0.14,0.25 -0.31,0.3 -0.33,0.08 -1.07,0.12 -1.85,0.12l-0.02 -0.04z"/>
   <path id="_1_66" class="fil4" d="M46.98 390.01c0.15,0.19 0.28,0.35 0.38,0.44 0.81,0 1.53,-0.14 1.69,-0.2 0.01,-0.26 0,-0.57 0,-0.83l-0.54 0.02c-0.05,0.01 -0.05,-0.01 -0.05,-0.07 0.01,-0.43 0.02,-1.4 0.02,-2.06 0,-0.86 -0.77,-1.52 -1.55,-1.52 -0.97,0 -1.72,0.4 -2.45,1 0.16,0.24 0.34,0.51 0.53,0.72 0.4,-0.27 0.94,-0.57 1.27,-0.57 0.46,0 0.65,0.3 0.62,0.8 -0.1,0 -0.27,0 -0.49,0 -1.61,0 -2.27,0.97 -2.27,1.53 0,0.65 0.78,1.18 1.3,1.18 0.38,0 0.87,-0.14 1.48,-0.44l0.05 0zm-1.22 -0.91c0,-0.32 0.28,-0.61 0.95,-0.61 0.07,0 0.15,0 0.21,0.01 0,0.26 0,0.45 0,0.7 0,0.01 0,0.04 -0.02,0.06 -0.15,0.09 -0.41,0.22 -0.68,0.22 -0.2,0 -0.47,-0.15 -0.47,-0.38z"/>
   <path id="_2_67" class="fil4" d="M49.51 388.42c0,1.26 0.96,2.03 2.19,2.03 0.41,0 1.21,-0.14 1.87,-0.5 -0.04,-0.24 -0.12,-0.55 -0.19,-0.81 -0.3,0.12 -0.77,0.27 -1.16,0.27 -0.21,0 -0.52,-0.04 -0.69,-0.24 -0.18,-0.21 -0.31,-0.49 -0.31,-0.97 0,-0.46 0.05,-0.76 0.21,-1.03 0.14,-0.24 0.33,-0.31 0.56,-0.31 0.4,0 0.92,0.25 1.05,0.3 0.2,-0.11 0.52,-0.82 0.52,-1.12 -0.24,-0.15 -0.76,-0.25 -1.12,-0.25 -1.79,0 -2.92,1.2 -2.92,2.63zm2.49 -4.04c-0.36,-0.33 -0.72,-0.67 -1.04,-0.97 -0.17,0.12 -0.35,0.27 -0.52,0.43 0.4,0.45 0.85,0.97 1.22,1.42 0.2,0.01 0.46,0.01 0.65,0.01 0.36,-0.41 0.88,-1.03 1.23,-1.43 -0.13,-0.15 -0.31,-0.32 -0.48,-0.44 -0.32,0.29 -0.7,0.65 -1.07,0.98z"/>
   <path id="_3_68" class="fil4" d="M56.76 390.01c0.15,0.19 0.28,0.35 0.38,0.44 0.81,0 1.53,-0.14 1.69,-0.2 0.01,-0.26 0,-0.57 0,-0.83l-0.54 0.02c-0.05,0.01 -0.05,-0.01 -0.05,-0.07 0.01,-0.43 0.02,-1.4 0.02,-2.06 0,-0.86 -0.77,-1.52 -1.55,-1.52 -0.97,0 -1.72,0.4 -2.45,1 0.16,0.24 0.34,0.51 0.53,0.72 0.4,-0.27 0.94,-0.57 1.27,-0.57 0.46,0 0.65,0.3 0.62,0.8 -0.1,0 -0.27,0 -0.49,0 -1.61,0 -2.27,0.97 -2.27,1.53 0,0.65 0.78,1.18 1.3,1.18 0.38,0 0.87,-0.14 1.48,-0.44l0.05 0zm-1.22 -0.91c0,-0.32 0.28,-0.61 0.95,-0.61 0.07,0 0.15,0 0.21,0.01 0,0.26 0,0.45 0,0.7 0,0.01 0,0.04 -0.02,0.06 -0.15,0.09 -0.41,0.22 -0.68,0.22 -0.2,0 -0.47,-0.15 -0.47,-0.38zm1.84 -5.76c-0.52,0.5 -1.08,1.05 -1.59,1.53 0.16,0.19 0.31,0.36 0.45,0.53 0.57,-0.39 1.19,-0.85 1.81,-1.29 -0.2,-0.25 -0.43,-0.53 -0.68,-0.76z"/>
   <path id="_4_69" class="fil4" d="M60.93 390.45c0.75,0 1.49,-0.09 2.19,-0.36 -0.03,-0.26 -0.07,-0.58 -0.12,-0.85 -0.31,0.08 -0.7,0.15 -1.1,0.15 -0.22,0 -0.46,-0.17 -0.46,-0.46 0,-0.45 0,-0.82 0.01,-1.23 0,-0.56 0,-0.76 0,-0.84 0.46,0 1.09,0.01 1.52,0.01 0.03,-0.3 0.04,-0.66 0.04,-0.95 -0.48,0 -1.04,0.01 -1.56,0.01 0.01,-0.27 0.02,-1.19 0.03,-1.42 0,-0.03 -0.01,-0.04 -0.03,-0.04 -0.03,0 -0.99,0.29 -1.51,0.55 -0.02,0.24 -0.05,0.57 -0.07,0.84 0,0.05 -0.04,0.08 -0.07,0.08 -0.2,0.01 -0.46,0.04 -0.66,0.05 -0.02,0.28 -0.03,0.58 -0.03,0.86 0.24,0 0.54,0 0.71,0 0,0.09 -0.01,1.11 -0.01,1.32 0,0.12 -0.01,0.61 -0.01,1.17 0,0.28 0.03,0.52 0.35,0.8 0.25,0.23 0.52,0.3 0.78,0.3z"/>
   <path id="_5_70" class="fil4" d="M63.47 388.36c0,1.44 1.03,2.09 2.37,2.09 0.49,0 1.37,-0.2 1.96,-0.48 -0.04,-0.25 -0.11,-0.58 -0.19,-0.84 -0.32,0.12 -0.98,0.28 -1.43,0.28 -0.25,0 -0.52,-0.02 -0.75,-0.24 -0.13,-0.12 -0.25,-0.32 -0.27,-0.66 0.9,0 1.93,0 2.2,-0.03 0.08,-0.01 0.54,-0.44 0.55,-0.59 0,-0.66 -0.19,-1.19 -0.52,-1.58 -0.27,-0.3 -0.75,-0.54 -1.37,-0.54 -1.52,0 -2.55,1.13 -2.55,2.57zm2.35 -1.72c0.22,0 0.37,0.12 0.45,0.3 0.08,0.15 0.12,0.42 0.12,0.64 0,0.07 -0.03,0.11 -0.09,0.11 -0.29,0.01 -0.79,0.02 -1.14,0.02 -0.01,-0.4 0.06,-0.6 0.18,-0.8 0.14,-0.22 0.31,-0.27 0.48,-0.27z"/>
   <path id="_6_71" class="fil4" d="M68.97 384.43c0,1.51 -0.01,3.46 -0.01,5.03 0,0.01 -0.01,0.04 -0.03,0.04l-0.5 0.03c-0.01,0.26 -0.02,0.57 -0.02,0.83 0.41,0 0.89,-0.01 1.3,-0.01 0.41,0 0.9,0 1.23,0 0.01,-0.26 0.01,-0.56 0.01,-0.82l-0.36 -0.03c0,-0.33 0.01,-0.82 0.01,-1.14 0.14,-0.01 0.26,-0.01 0.39,-0.01 0.16,0 0.34,0.38 0.5,0.84 0.17,0.52 0.3,0.94 0.43,1.19 0.14,-0.01 1.64,-0.02 2.01,-0.02 0.02,-0.26 0.02,-0.57 0.02,-0.84l-0.52 -0.02c-0.05,0 -0.11,-0.03 -0.15,-0.09 -0.07,-0.13 -0.18,-0.39 -0.31,-0.71 -0.25,-0.6 -0.52,-0.81 -0.73,-0.96l0 -0.06c0.28,-0.22 0.62,-0.5 1.11,-0.91l0.37 -0.03c0.01,-0.27 0.01,-0.57 0.01,-0.84 -0.27,0 -0.6,0 -0.87,0.01 -0.42,0 -0.97,0.01 -1.42,0.01 -0.01,0.26 -0.01,0.57 -0.01,0.84l0.37 0.02c0.02,0 0.04,0.01 0.02,0.04 -0.26,0.31 -0.53,0.55 -0.71,0.71 -0.17,0.02 -0.35,0.02 -0.53,0.03 0.01,-1.57 0.02,-3.06 0.02,-4.23 0,-0.03 -0.01,-0.04 -0.02,-0.04 -0.1,0 -1.72,0.21 -2.28,0.28 0,0.26 -0.01,0.56 -0.01,0.84l0.65 0.02z"/>
   <path id="_7_72" class="fil4" d="M78.59 386.37c-0.04,-0.19 -0.07,-0.37 -0.11,-0.57 0,-0.01 0,-0.02 -0.02,-0.02 -0.05,0 -1.58,0.26 -2.05,0.32 -0.01,0.26 -0.02,0.56 -0.02,0.83l0.64 0.01 -0.01 4.89c0,0.03 -0.01,0.05 -0.04,0.05l-0.49 0.04c-0.01,0.27 -0.01,0.57 -0.01,0.83 0.4,-0.01 0.93,-0.01 1.33,-0.01 0.54,-0.01 1.14,-0.01 1.63,-0.01 0.01,-0.26 0.01,-0.56 0.01,-0.83l-0.82 -0.03c0,-0.52 0,-1.04 -0.01,-1.55l0.07 -0.02c0.22,0.09 0.51,0.14 0.89,0.14 0.4,0 0.88,-0.17 1.08,-0.32 0.39,-0.3 0.64,-0.68 0.77,-0.98 0.19,-0.42 0.31,-0.9 0.31,-1.35 0.01,-1.05 -0.7,-2 -1.54,-2 -0.42,0 -0.54,0.04 -1.56,0.59l-0.06 -0.01zm1.43 1.8c0,0.54 -0.09,0.9 -0.23,1.11 -0.13,0.19 -0.33,0.26 -0.52,0.26 -0.21,0 -0.62,-0.15 -0.62,-0.35 0,-0.57 0.01,-1.38 0.02,-1.94 0.29,-0.18 0.59,-0.28 0.79,-0.28 0.19,0 0.31,0.14 0.39,0.26 0.1,0.15 0.16,0.48 0.16,0.94z"/>
   <path id="_8_73" class="fil4" d="M82.79 384.44c0,1.5 0,3.47 0,5.01 0,0.03 -0.01,0.05 -0.03,0.05l-0.55 0.03c0,0.26 -0.01,0.57 -0.01,0.83 0.42,0 0.96,-0.01 1.39,-0.01 0.48,0 1,0 1.41,0 0,-0.26 0.01,-0.56 0.01,-0.83l-0.59 -0.02c0.01,-1.88 0.03,-4.5 0.04,-6.18 0,-0.03 -0.01,-0.04 -0.03,-0.04 -0.1,0 -1.75,0.21 -2.31,0.27 -0.01,0.26 -0.02,0.57 -0.02,0.84l0.69 0.04z"/>
   <path id="_9_74" class="fil4" d="M85.47 388.36c0,1.44 1.03,2.09 2.37,2.09 0.49,0 1.37,-0.2 1.96,-0.48 -0.04,-0.25 -0.11,-0.58 -0.19,-0.84 -0.32,0.12 -0.98,0.28 -1.43,0.28 -0.25,0 -0.52,-0.02 -0.75,-0.24 -0.13,-0.12 -0.25,-0.32 -0.27,-0.66 0.9,0 1.93,0 2.2,-0.03 0.08,-0.01 0.54,-0.44 0.55,-0.59 0,-0.66 -0.19,-1.19 -0.52,-1.58 -0.27,-0.3 -0.75,-0.54 -1.37,-0.54 -1.52,0 -2.55,1.13 -2.55,2.57zm2.35 -1.72c0.22,0 0.37,0.12 0.45,0.3 0.08,0.15 0.12,0.42 0.12,0.64 0,0.07 -0.03,0.11 -0.09,0.11 -0.29,0.01 -0.79,0.02 -1.14,0.02 -0.01,-0.4 0.06,-0.6 0.18,-0.8 0.14,-0.22 0.31,-0.27 0.48,-0.27z"/>
   <path id="_10_75" class="fil4" d="M91.38 388.74c-0.3,0.04 -0.61,0.1 -0.89,0.16 0.05,0.46 0.1,0.92 0.16,1.39 0.33,0.1 0.86,0.16 1.33,0.16 0.64,0 1.18,-0.1 1.51,-0.25 0.55,-0.27 0.89,-0.75 0.89,-1.31 0,-0.81 -0.5,-1.1 -1.22,-1.3 -0.78,-0.21 -0.95,-0.26 -0.95,-0.49 0,-0.19 0.09,-0.29 0.18,-0.35 0.09,-0.06 0.26,-0.08 0.38,-0.08 0.12,0 0.28,0.03 0.39,0.11 0.04,0.02 0.06,0.07 0.07,0.11l0.15 0.54c0.31,-0.04 0.64,-0.09 0.91,-0.14 -0.04,-0.45 -0.09,-0.91 -0.14,-1.35 -0.17,-0.06 -0.66,-0.13 -1.21,-0.13 -0.66,0 -1.12,0.13 -1.45,0.29 -0.42,0.2 -0.87,0.66 -0.87,1.26 0,0.64 0.44,1.08 1.35,1.34 0.69,0.18 0.81,0.25 0.81,0.51 0,0.17 -0.1,0.27 -0.22,0.33 -0.12,0.05 -0.25,0.05 -0.39,0.05 -0.18,0 -0.38,-0.05 -0.56,-0.15 -0.06,-0.04 -0.07,-0.08 -0.08,-0.11l-0.16 -0.58z"/>
   <path id="_11_76" class="fil4" d="M98.3 389.95c0.18,0.24 0.32,0.39 0.48,0.51 0.66,0 1.55,-0.14 1.65,-0.19 0.01,-0.27 0.01,-0.58 0.01,-0.84l-0.57 0.02c-0.03,0 -0.04,-0.02 -0.04,-0.06 0,-1.16 0.02,-2.38 0.03,-3.45 0,-0.01 -0.01,-0.04 -0.02,-0.04 -0.15,0 -1.74,0.03 -2.12,0.04 0,0.26 -0.01,0.58 -0.01,0.86l0.5 0.02c0,0.62 0.01,1.62 0,2.31 -0.19,0.14 -0.44,0.21 -0.61,0.21 -0.14,0 -0.28,-0.01 -0.4,-0.2 -0.13,-0.22 -0.12,-0.58 -0.12,-0.87 0,-0.74 0.02,-1.63 0.03,-2.34 0,-0.02 -0.01,-0.04 -0.03,-0.04 -0.14,0.01 -1.63,0.05 -2.05,0.07 0,0.26 -0.01,0.56 -0.01,0.83l0.44 0.02c0,0.66 -0.01,1.46 -0.01,2.22 0,0.62 0.76,1.43 1.37,1.43 0.4,0 0.61,-0.03 1.45,-0.51l0.04 0z"/>
   <path class="fil0" d="M55.91 437.19l-4.79 1.26c-1.4,-0.48 -1.05,-1.46 -1.19,-3.24 -0.12,-1.63 -0.22,-2.65 -0.58,-4.24l-5.32 0.91 1.25 7.17 -1.16 0.28 -0.79 0.25 -0.67 -0.11 -2.23 0.08 -1.01 0.63c-0.45,2.19 -0.39,1.96 -1.58,3.55l0.66 2.09 7.42 -1.11 0.01 1.82 0.46 1.43 0.06 1.33 -0.16 1.28 1 1.57 4.06 -0.67c0.91,-1.04 0.68,-0.6 0.57,-2.12 -0.02,-0.24 -0.32,-1.33 -0.39,-1.82l-0.12 -0.67 -0.16 -1.15 -0.41 -1.96 7.86 -1.15 -1.1 -5.32 -1.69 -0.07z"/>
   <path class="fil4" d="M2 438.32c0.8,-0.96 1.82,-2.19 3.45,-4.38 -0.08,-0.37 -0.19,-0.8 -0.31,-1.15l-3.44 -0.01c-0.31,0 -0.97,-0.02 -1.07,-0.02 -0.13,0.69 -0.26,1.39 -0.38,2.09 0.33,0.07 0.72,0.14 1.06,0.21l0.35 -1c0.04,-0.11 0.1,-0.2 0.21,-0.24 0.13,-0.04 0.26,-0.05 0.98,-0.05 0.2,0 0.4,0 0.61,0l0.02 0.04c-1.05,1.43 -1.99,2.73 -3.48,4.72 0.09,0.25 0.2,0.56 0.32,0.81 0.21,0 1.02,0 1.58,0 1.82,0 2.98,0.01 3.19,0.01 0.17,-0.69 0.33,-1.4 0.49,-2.09 -0.32,-0.07 -0.72,-0.15 -1.08,-0.21l-0.31 0.89c-0.05,0.14 -0.14,0.25 -0.31,0.3 -0.33,0.08 -1.07,0.12 -1.85,0.12l-0.02 -0.04z"/>
   <path id="_1_77" class="fil4" d="M8.94 438.99c0.15,0.19 0.28,0.35 0.38,0.44 0.81,0 1.53,-0.14 1.69,-0.2 0.01,-0.26 0,-0.57 0,-0.83l-0.54 0.02c-0.05,0.01 -0.05,-0.01 -0.05,-0.07 0.01,-0.43 0.02,-1.4 0.02,-2.06 0,-0.86 -0.77,-1.52 -1.55,-1.52 -0.97,0 -1.72,0.4 -2.45,1 0.16,0.24 0.34,0.51 0.53,0.72 0.4,-0.27 0.94,-0.57 1.27,-0.57 0.46,0 0.65,0.3 0.62,0.8 -0.1,0 -0.27,0 -0.49,0 -1.61,0 -2.27,0.97 -2.27,1.53 0,0.65 0.78,1.18 1.3,1.18 0.38,0 0.87,-0.14 1.48,-0.44l0.05 0zm-1.22 -0.91c0,-0.32 0.28,-0.61 0.95,-0.61 0.07,0 0.15,0 0.21,0.01 0,0.26 0,0.45 0,0.7 0,0.01 0,0.04 -0.02,0.06 -0.15,0.09 -0.41,0.22 -0.68,0.22 -0.2,0 -0.47,-0.15 -0.47,-0.38z"/>
   <path id="_2_78" class="fil4" d="M11.47 437.41c0,1.26 0.96,2.03 2.19,2.03 0.41,0 1.21,-0.14 1.87,-0.5 -0.04,-0.24 -0.12,-0.55 -0.19,-0.81 -0.3,0.12 -0.77,0.27 -1.16,0.27 -0.21,0 -0.52,-0.04 -0.69,-0.24 -0.18,-0.21 -0.31,-0.49 -0.31,-0.97 0,-0.46 0.05,-0.76 0.21,-1.03 0.14,-0.24 0.33,-0.31 0.56,-0.31 0.4,0 0.92,0.25 1.05,0.3 0.2,-0.11 0.52,-0.82 0.52,-1.12 -0.24,-0.15 -0.76,-0.25 -1.12,-0.25 -1.79,0 -2.92,1.2 -2.92,2.63zm2.49 -4.04c-0.36,-0.33 -0.72,-0.67 -1.04,-0.97 -0.17,0.12 -0.35,0.27 -0.52,0.43 0.4,0.45 0.85,0.97 1.22,1.42 0.2,0.01 0.46,0.01 0.65,0.01 0.36,-0.41 0.88,-1.03 1.23,-1.43 -0.13,-0.15 -0.31,-0.32 -0.48,-0.44 -0.32,0.29 -0.7,0.65 -1.07,0.98z"/>
   <path id="_3_79" class="fil4" d="M18.71 438.99c0.15,0.19 0.28,0.35 0.38,0.44 0.81,0 1.53,-0.14 1.69,-0.2 0.01,-0.26 0,-0.57 0,-0.83l-0.54 0.02c-0.05,0.01 -0.05,-0.01 -0.05,-0.07 0.01,-0.43 0.02,-1.4 0.02,-2.06 0,-0.86 -0.77,-1.52 -1.55,-1.52 -0.97,0 -1.72,0.4 -2.45,1 0.16,0.24 0.34,0.51 0.53,0.72 0.4,-0.27 0.94,-0.57 1.27,-0.57 0.46,0 0.65,0.3 0.62,0.8 -0.1,0 -0.27,0 -0.49,0 -1.61,0 -2.27,0.97 -2.27,1.53 0,0.65 0.78,1.18 1.3,1.18 0.38,0 0.87,-0.14 1.48,-0.44l0.05 0zm-1.22 -0.91c0,-0.32 0.28,-0.61 0.95,-0.61 0.07,0 0.15,0 0.21,0.01 0,0.26 0,0.45 0,0.7 0,0.01 0,0.04 -0.02,0.06 -0.15,0.09 -0.41,0.22 -0.68,0.22 -0.2,0 -0.47,-0.15 -0.47,-0.38zm1.84 -5.76c-0.52,0.5 -1.08,1.05 -1.59,1.53 0.16,0.19 0.31,0.36 0.45,0.53 0.57,-0.39 1.19,-0.85 1.81,-1.29 -0.2,-0.25 -0.43,-0.53 -0.68,-0.76z"/>
   <path id="_4_80" class="fil4" d="M22.89 439.44c0.75,0 1.49,-0.09 2.19,-0.36 -0.03,-0.26 -0.07,-0.58 -0.12,-0.85 -0.31,0.08 -0.7,0.15 -1.1,0.15 -0.22,0 -0.46,-0.17 -0.46,-0.46 0,-0.45 0,-0.82 0.01,-1.23 0,-0.56 0,-0.76 0,-0.84 0.46,0 1.09,0.01 1.52,0.01 0.03,-0.3 0.04,-0.66 0.04,-0.95 -0.48,0 -1.04,0.01 -1.56,0.01 0.01,-0.27 0.02,-1.19 0.03,-1.42 0,-0.03 -0.01,-0.04 -0.03,-0.04 -0.03,0 -0.99,0.29 -1.51,0.55 -0.02,0.24 -0.05,0.57 -0.07,0.84 0,0.05 -0.04,0.08 -0.07,0.08 -0.2,0.01 -0.46,0.04 -0.66,0.05 -0.02,0.28 -0.03,0.58 -0.03,0.86 0.24,0 0.54,0 0.71,0 0,0.09 -0.01,1.11 -0.01,1.32 0,0.12 -0.01,0.61 -0.01,1.17 0,0.28 0.03,0.52 0.35,0.8 0.25,0.23 0.52,0.3 0.78,0.3z"/>
   <path id="_5_81" class="fil4" d="M25.43 437.35c0,1.44 1.03,2.09 2.37,2.09 0.49,0 1.37,-0.2 1.96,-0.48 -0.04,-0.25 -0.11,-0.58 -0.19,-0.84 -0.32,0.12 -0.98,0.28 -1.43,0.28 -0.25,0 -0.52,-0.02 -0.75,-0.24 -0.13,-0.12 -0.25,-0.32 -0.27,-0.66 0.9,0 1.93,0 2.2,-0.03 0.08,-0.01 0.54,-0.44 0.55,-0.59 0,-0.66 -0.19,-1.19 -0.52,-1.58 -0.27,-0.3 -0.75,-0.54 -1.37,-0.54 -1.52,0 -2.55,1.13 -2.55,2.57zm2.35 -1.72c0.22,0 0.37,0.12 0.45,0.3 0.08,0.15 0.12,0.42 0.12,0.64 0,0.07 -0.03,0.11 -0.09,0.11 -0.29,0.01 -0.79,0.02 -1.14,0.02 -0.01,-0.4 0.06,-0.6 0.18,-0.8 0.14,-0.22 0.31,-0.27 0.48,-0.27z"/>
   <path id="_6_82" class="fil4" d="M30.93 433.41c0,1.51 -0.01,3.46 -0.01,5.03 0,0.01 -0.01,0.04 -0.03,0.04l-0.5 0.03c-0.01,0.26 -0.02,0.57 -0.02,0.83 0.41,0 0.89,-0.01 1.3,-0.01 0.41,0 0.9,0 1.23,0 0.01,-0.26 0.01,-0.56 0.01,-0.82l-0.36 -0.03c0,-0.33 0.01,-0.82 0.01,-1.14 0.14,-0.01 0.26,-0.01 0.39,-0.01 0.16,0 0.34,0.38 0.5,0.84 0.17,0.52 0.3,0.94 0.43,1.19 0.14,-0.01 1.64,-0.02 2.01,-0.02 0.02,-0.26 0.02,-0.57 0.02,-0.84l-0.52 -0.02c-0.05,0 -0.11,-0.03 -0.15,-0.09 -0.07,-0.13 -0.18,-0.39 -0.31,-0.71 -0.25,-0.6 -0.52,-0.81 -0.73,-0.96l0 -0.06c0.28,-0.22 0.62,-0.5 1.11,-0.91l0.37 -0.03c0.01,-0.27 0.01,-0.57 0.01,-0.84 -0.27,0 -0.6,0 -0.87,0.01 -0.42,0 -0.97,0.01 -1.42,0.01 -0.01,0.26 -0.01,0.57 -0.01,0.84l0.37 0.02c0.02,0 0.04,0.01 0.02,0.04 -0.26,0.31 -0.53,0.55 -0.71,0.71 -0.17,0.02 -0.35,0.02 -0.53,0.03 0.01,-1.57 0.02,-3.06 0.02,-4.23 0,-0.03 -0.01,-0.04 -0.02,-0.04 -0.1,0 -1.72,0.21 -2.28,0.28 0,0.26 -0.01,0.56 -0.01,0.84l0.65 0.02z"/>
   <path id="_7_83" class="fil4" d="M13.97 444.43c-0.04,-0.19 -0.07,-0.37 -0.11,-0.57 0,-0.01 0,-0.02 -0.02,-0.02 -0.05,0 -1.58,0.26 -2.05,0.32 -0.01,0.26 -0.02,0.56 -0.02,0.83l0.64 0.01 -0.01 4.89c0,0.03 -0.01,0.05 -0.04,0.05l-0.49 0.04c-0.01,0.27 -0.01,0.57 -0.01,0.83 0.4,-0.01 0.93,-0.01 1.33,-0.01 0.54,-0.01 1.14,-0.01 1.63,-0.01 0.01,-0.26 0.01,-0.56 0.01,-0.83l-0.82 -0.03c0,-0.52 0,-1.04 -0.01,-1.55l0.07 -0.02c0.22,0.09 0.51,0.14 0.89,0.14 0.4,0 0.88,-0.17 1.08,-0.32 0.39,-0.3 0.64,-0.68 0.77,-0.98 0.19,-0.42 0.31,-0.9 0.31,-1.35 0.01,-1.05 -0.7,-2 -1.54,-2 -0.42,0 -0.54,0.04 -1.56,0.59l-0.06 -0.01zm1.43 1.8c0,0.54 -0.09,0.9 -0.23,1.11 -0.13,0.19 -0.33,0.26 -0.52,0.26 -0.21,0 -0.62,-0.15 -0.62,-0.35 0,-0.57 0.01,-1.38 0.02,-1.94 0.29,-0.18 0.59,-0.28 0.79,-0.28 0.19,0 0.31,0.14 0.39,0.26 0.1,0.15 0.16,0.48 0.16,0.94z"/>
   <path id="_8_84" class="fil4" d="M18.18 442.5c0,1.5 0,3.47 0,5.01 0,0.03 -0.01,0.05 -0.03,0.05l-0.55 0.03c0,0.26 -0.01,0.57 -0.01,0.83 0.42,0 0.96,-0.01 1.39,-0.01 0.48,0 1,0 1.41,0 0,-0.26 0.01,-0.56 0.01,-0.83l-0.59 -0.02c0.01,-1.88 0.03,-4.5 0.04,-6.18 0,-0.03 -0.01,-0.04 -0.03,-0.04 -0.1,0 -1.75,0.21 -2.31,0.27 -0.01,0.26 -0.02,0.57 -0.02,0.84l0.69 0.04z"/>
   <path id="_9_85" class="fil4" d="M20.86 446.43c0,1.44 1.03,2.09 2.37,2.09 0.49,0 1.37,-0.2 1.96,-0.48 -0.04,-0.25 -0.11,-0.58 -0.19,-0.84 -0.32,0.12 -0.98,0.28 -1.43,0.28 -0.25,0 -0.52,-0.02 -0.75,-0.24 -0.13,-0.12 -0.25,-0.32 -0.27,-0.66 0.9,0 1.93,0 2.2,-0.03 0.08,-0.01 0.54,-0.44 0.55,-0.59 0,-0.66 -0.19,-1.19 -0.52,-1.58 -0.27,-0.3 -0.75,-0.54 -1.37,-0.54 -1.52,0 -2.55,1.13 -2.55,2.57zm2.35 -1.72c0.22,0 0.37,0.12 0.45,0.3 0.08,0.15 0.12,0.42 0.12,0.64 0,0.07 -0.03,0.11 -0.09,0.11 -0.29,0.01 -0.79,0.02 -1.14,0.02 -0.01,-0.4 0.06,-0.6 0.18,-0.8 0.14,-0.22 0.31,-0.27 0.48,-0.27z"/>
   <path id="_10_86" class="fil4" d="M26.76 446.81c-0.3,0.04 -0.61,0.1 -0.89,0.16 0.05,0.46 0.1,0.92 0.16,1.39 0.33,0.1 0.86,0.16 1.33,0.16 0.64,0 1.18,-0.1 1.51,-0.25 0.55,-0.27 0.89,-0.75 0.89,-1.31 0,-0.81 -0.5,-1.1 -1.22,-1.3 -0.78,-0.21 -0.95,-0.26 -0.95,-0.49 0,-0.19 0.09,-0.29 0.18,-0.35 0.09,-0.06 0.26,-0.08 0.38,-0.08 0.12,0 0.28,0.03 0.39,0.11 0.04,0.02 0.06,0.07 0.07,0.11l0.15 0.54c0.31,-0.04 0.64,-0.09 0.91,-0.14 -0.04,-0.45 -0.09,-0.91 -0.14,-1.35 -0.17,-0.06 -0.66,-0.13 -1.21,-0.13 -0.66,0 -1.12,0.13 -1.45,0.29 -0.42,0.2 -0.87,0.66 -0.87,1.26 0,0.64 0.44,1.08 1.35,1.34 0.69,0.18 0.81,0.25 0.81,0.51 0,0.17 -0.1,0.27 -0.22,0.33 -0.12,0.05 -0.25,0.05 -0.39,0.05 -0.18,0 -0.38,-0.05 -0.56,-0.15 -0.06,-0.04 -0.07,-0.08 -0.08,-0.11l-0.16 -0.58z"/>
   <path id="_11_87" class="fil4" d="M33.69 448.01c0.18,0.24 0.32,0.39 0.48,0.51 0.66,0 1.55,-0.14 1.65,-0.19 0.01,-0.27 0.01,-0.58 0.01,-0.84l-0.57 0.02c-0.03,0 -0.04,-0.02 -0.04,-0.06 0,-1.16 0.02,-2.38 0.03,-3.45 0,-0.01 -0.01,-0.04 -0.02,-0.04 -0.15,0 -1.74,0.03 -2.12,0.04 0,0.26 -0.01,0.58 -0.01,0.86l0.5 0.02c0,0.62 0.01,1.62 0,2.31 -0.19,0.14 -0.44,0.21 -0.61,0.21 -0.14,0 -0.28,-0.01 -0.4,-0.2 -0.13,-0.22 -0.12,-0.58 -0.12,-0.87 0,-0.74 0.02,-1.63 0.03,-2.34 0,-0.02 -0.01,-0.04 -0.03,-0.04 -0.14,0.01 -1.63,0.05 -2.05,0.07 0,0.26 -0.01,0.56 -0.01,0.83l0.44 0.02c0,0.66 -0.01,1.46 -0.01,2.22 0,0.62 0.76,1.43 1.37,1.43 0.4,0 0.61,-0.03 1.45,-0.51l0.04 0z"/>
  </g>
 </g>
</svg>
