<?xml version="1.0" encoding="utf-8"?>
<!-- Svg Vector Icons : http://www.onlinewebfonts.com/icon -->
<!DOCTYPE svg PUBLIC "-//W3C//DTD SVG 1.1//EN" "http://www.w3.org/Graphics/SVG/1.1/DTD/svg11.dtd">
<svg version="1.1" xmlns="http://www.w3.org/2000/svg" xmlns:xlink="http://www.w3.org/1999/xlink" x="0px" y="0px" viewBox="0 0 256 256" enable-background="new 0 0 256 256" xml:space="preserve">
<metadata> Svg Vector Icons : http://www.onlinewebfonts.com/icon </metadata>
<g><g><g><path fill="#000000" d="M119.5,10.1c-0.7,0.1-3.4,0.4-5.8,0.7c-19.6,2.2-40.4,10.8-57,23.4c-6.1,4.7-15.6,13.9-20.5,20c-13.8,17.1-22.5,37.4-25.6,59.6c-0.8,5.7-0.8,22.9,0,28.6c2.3,16.6,8,32.9,16.4,46.7c8.7,14.3,22.2,28.3,36.5,37.8c7.1,4.8,19.3,10.7,27.6,13.4c13.2,4.3,22.7,5.8,36.9,5.8c5.6,0,11.8-0.2,14.3-0.6c13.6-1.8,25.8-5.6,37.6-11.5c13.1-6.6,22.5-13.5,32.7-23.9c18.1-18.6,29.3-41.6,32.8-67.6c0.8-5.7,0.8-22.9,0-28.6c-1.8-13.6-5.6-25.8-11.5-37.6C227.3,63,220.5,53.7,210,43.5c-18.3-17.8-40.7-28.8-66-32.6C139.6,10.3,122.4,9.7,119.5,10.1z M142.8,20.7c32.6,4.3,61.2,23,78.1,51c6.4,10.7,11.2,23.3,13.6,35.6c0.6,3.2,0.6,3.2-0.4,3c-5.4-1.3-10.2-1.8-18.1-1.5c-11.4,0.3-17.7,1.8-27.6,6.5l-4.9,2.3l-5.9-2.8c-10.2-4.8-21.3-8.9-31.6-11.4c-9.6-2.4-24.2-4.4-31.2-4.4c-1.7,0-3.8-0.1-4.8-0.3l-1.8-0.3v-7.3v-7.3h5.5c6.1,0,7.8-0.5,8.7-2.5c0.4-0.8,0.6-4.7,0.6-12.5V57.4l-1.3-1.5c-1.2-1.3-1.7-1.5-3.5-1.5c-1.7,0-2.4,0.3-3.4,1.3l-1.3,1.2l-0.1,8.6l-0.1,8.5l-2.4-0.1l-2.4-0.1l-0.1-5.5c-0.1-6-0.5-7.3-2.5-8.4c-2.2-1.1-4-0.8-5.7,0.9l-1.6,1.6V73v10.7h-2.5h-2.5v-5.8c0-5.7,0-5.8-1.3-7.3c-1.2-1.3-1.7-1.5-3.5-1.5c-1.7,0-2.4,0.3-3.4,1.3l-1.3,1.2l-0.1,8.9c-0.1,6.1,0,9.2,0.4,10.2c0.9,2.2,2.4,2.7,8.7,2.7h5.5v2.7v2.7l-6.3,0.6c-23.8,2.1-48.5,10-68.5,21.9l-3.5,2.1l-0.1-1.9c-0.2-2.4,0.6-9.3,1.8-15.3c5.6-28,22.1-52.7,46-68.6C89.4,23.2,116.2,17.2,142.8,20.7z M125.2,109.4c15.3,1.9,31.7,6.6,44.6,12.7l4,1.9l-2,1.7c-2.7,2.2-9.7,9.4-11,11.4c-1.1,1.6-1.1,1.6-7.3,2.4c-8,1-18.7,3.1-25.7,5.1l-5.5,1.6l-2.6-1.5c-6.3-3.7-17.3-7.7-25.7-9.4c-15.3-3.1-31.2-2.3-46.1,2.3c-8.1,2.5-17.8,7-24.7,11.6c-1.8,1.2-1.7,1.4-2.7-5.9c-1.1-8.1-1.4-7.3,3.8-10.6c20.3-12.8,42.6-20.7,65.5-23.2c2.5-0.3,5.4-0.6,6.2-0.7C99.8,108.1,119.8,108.6,125.2,109.4z M225,118.8c1.7,0.3,4.8,0.9,7,1.5l4,1l0.3,3.5c0.4,5.1-0.7,20.8-1.8,23.9c-0.1,0.4-2-0.1-6.1-1.5c-16-5.5-35.7-9-50.6-9c-2.8,0-5-0.2-5-0.4c0-0.7,7.2-6.8,11-9.4c6.7-4.6,14.9-7.9,23-9.3C211.1,118.3,220.8,118.2,225,118.8z M82.7,143.1c4.8,0.3,12.8,2,18.3,3.9c4.9,1.7,8.7,3.3,8.4,3.6c-0.1,0.1-2.6,1.3-5.5,2.6c-10.3,4.8-19.2,10-28,16.4c-4.8,3.6-4.9,3.6-10.7,5c-9.9,2.4-26.7,8.3-28.6,10.1c-1,0.9-1,0.8-4.5-5.8c-2.8-5.4-6.8-14.8-7.3-17.4c-0.3-1.3-0.1-1.5,3.1-3.7c10.3-6.9,20.5-11.3,31.6-13.5c5.3-1.1,13.3-1.8,17-1.6C77.8,142.8,80.6,142.9,82.7,143.1z M188.3,148.4c11.7,1.1,24.7,3.9,36.1,7.9c3.8,1.3,7,2.5,7.2,2.7c0.2,0.2-0.5,2.8-1.6,5.9c-4.6,13.4-13.3,27.8-22.7,37.5l-2.8,2.8l-4.2-3.1c-22.6-16.8-48.9-27.2-78.1-30.8c-4.5-0.6-9.9-0.8-18.1-0.8c-6.4,0-11.7-0.1-11.7-0.1c0,0,1.6-1,3.6-2.1c24.1-13.9,53-21.2,80.5-20.4C180.2,147.9,185.5,148.2,188.3,148.4z M119.5,180.5c24.9,2.6,48.1,11.1,69.1,25.2c2.9,2,6.1,4.2,7,4.9l1.7,1.3l-3.1,2.4c-20.8,15.7-46.7,23.5-72.9,21.8c-26.4-1.7-49.9-11.8-68.3-29.6c-5.9-5.6-12.1-12.9-11.5-13.4c0.7-0.7,12.1-5,18.2-6.8c9.9-3,22.1-5.4,31.6-6.2C96.8,179.6,113.5,179.9,119.5,180.5z"/></g></g></g>
</svg>